<svg width="76" height="96" viewBox="0 0 76 96" fill="none" xmlns="http://www.w3.org/2000/svg">
<g clip-path="url(#clip0_168_1142)">
<path d="M33.2091 95.448C32.2904 95.448 31.9164 95.1436 31.7863 94.2883C31.6603 93.5035 31.4937 92.7186 31.3311 91.9586C31.1868 91.2877 31.0384 90.5919 30.9246 89.9085C30.7965 89.1485 30.4571 88.7136 29.7945 88.4589C28.4754 87.937 27.1522 87.38 25.8737 86.8022C25.6766 86.7098 25.4627 86.6605 25.2457 86.6573C24.9027 86.6713 24.5724 86.7936 24.3006 87.0072C23.7558 87.3924 23.1888 87.7714 22.642 88.1379C21.9876 88.5769 21.3087 89.0305 20.6542 89.5005C20.3936 89.7182 20.0736 89.8491 19.7376 89.8754C19.4286 89.8754 19.1278 89.7097 18.7802 89.3514C16.8168 87.3013 14.7152 85.1497 12.142 82.5839C11.514 81.9627 11.4632 81.4553 11.9591 80.7947C12.1624 80.5276 12.327 80.248 12.4937 79.9664C12.5587 79.8587 12.6237 79.7593 12.6969 79.6454C12.9284 79.2971 13.1774 78.9611 13.4428 78.639C14.1014 77.8106 14.7843 76.9512 14.7213 76.0566C14.6359 74.8141 14.075 73.6337 13.5323 72.4906C13.3006 72.004 13.0607 71.4987 12.8676 71.0058C12.638 70.4218 12.1542 70.3349 11.8331 70.2769L11.705 70.2541C11.1928 70.1485 10.6888 70.0367 10.1705 69.9269C9.22738 69.7198 8.25382 69.5127 7.28634 69.3367C6.45707 69.1897 6.15828 68.8045 6.1847 67.9203C6.21112 67.036 6.20708 66.1103 6.20098 65.2282C6.20098 64.7891 6.20098 64.3508 6.20098 63.9132C6.20098 62.3683 6.33106 62.242 7.90016 62.2379C8.68268 62.2379 9.46519 62.2379 10.2477 62.2379H17.4103C18.199 62.2379 18.9875 62.2379 19.7741 62.2379C21.2274 62.2379 21.3473 62.36 21.4001 63.7703C21.6766 71.3786 26.8656 77.8396 34.0221 79.4839C35.3072 79.7817 36.6209 79.9331 37.9388 79.9353C46.7559 79.9353 53.8107 72.9876 54.3493 63.7827C54.4306 62.3621 54.5526 62.2482 55.9754 62.2441H62.0058C63.9936 62.2441 65.9815 62.2441 67.9693 62.2441C69.3717 62.2441 69.5343 62.4077 69.5384 63.8034C69.5384 64.2735 69.5384 64.7436 69.5384 65.2116C69.5384 66.1021 69.5262 67.0215 69.5526 67.9306C69.579 68.8397 69.2802 69.1918 68.4469 69.3409C67.7497 69.4651 67.0526 69.6204 66.3758 69.7695C65.6501 69.931 64.8981 70.0967 64.1563 70.223C63.6197 70.3142 63.0282 70.5192 62.7132 71.3475C62.5363 71.8093 62.3067 72.2815 62.0912 72.737C61.6176 73.729 61.1278 74.752 61.0506 75.8433C60.9611 77.0693 61.7274 78.0073 62.4733 78.9144C62.7824 79.2742 63.0656 79.6563 63.3209 80.0575L63.388 80.1693C63.892 81.008 64.1684 81.4698 64.1319 81.7701C64.0953 82.0703 63.6786 82.5011 62.9937 83.2031C62.3087 83.9051 61.5709 84.6527 60.8615 85.3671C59.5729 86.6718 58.2416 88.022 56.9449 89.368C56.6054 89.7221 56.3046 89.8878 56.0018 89.8878C55.6976 89.8663 55.4074 89.7499 55.1705 89.5544C54.6603 89.1878 54.1298 88.8358 53.6176 88.4962C52.9896 88.082 52.3432 87.6492 51.7355 87.1957C51.3785 86.8969 50.935 86.7259 50.4733 86.709C50.1369 86.7174 49.8067 86.8038 49.5079 86.9617C49.0228 87.1855 48.5237 87.3764 48.014 87.5332C46.9754 87.8811 45.9002 88.2415 45.2559 89.0387C44.5729 89.8836 44.4327 91.1096 44.2965 92.3065C44.2416 92.7787 44.1867 93.2674 44.0932 93.7085C43.7457 95.4252 43.7254 95.4418 41.9672 95.4418H41.8961H39.4571H37.0181C35.5689 95.4418 34.388 95.4418 33.3026 95.4625L33.2091 95.448ZM37.9164 93.5511C39.0119 93.5511 40.0262 93.5635 41.0201 93.5884H41.0912C42.1075 93.5884 42.3676 92.9299 42.4754 92.2838C42.5831 91.6376 42.7254 90.9191 42.8595 90.2543C42.9815 89.6331 43.1095 89.0118 43.2193 88.3761C43.2485 88.1063 43.3539 87.851 43.5228 87.6411C43.6916 87.4312 43.9166 87.2758 44.1705 87.1936C46.0485 86.4233 47.9408 85.6094 49.7701 84.8204L49.9733 84.7334C50.1999 84.6302 50.4446 84.5745 50.6928 84.5699C51.057 84.5803 51.4082 84.7095 51.6949 84.9385C52.2071 85.3112 52.7376 85.6695 53.2498 86.0174C53.8046 86.3922 54.3798 86.7815 54.9245 87.1853C55.1537 87.381 55.439 87.4958 55.7376 87.5125C55.9122 87.4997 56.0825 87.4511 56.2383 87.3696C56.394 87.2881 56.5321 87.1754 56.6441 87.0383C58.3311 85.2636 59.8392 83.7249 61.2518 82.3478C62.0058 81.6106 61.7416 80.9956 61.3859 80.4841C61.0302 79.9726 60.6888 79.4486 60.3575 78.9434C60.0038 78.3967 59.6359 77.8292 59.2477 77.2867C59.0387 77.0303 58.908 76.7171 58.8719 76.3858C58.8358 76.0546 58.8958 75.7198 59.0445 75.4229C59.1908 75.0792 59.3392 74.734 59.4896 74.3875C59.99 73.2999 60.4251 72.1824 60.7924 71.041C61.3392 69.1897 62.2985 68.38 63.9977 68.3324C64.393 68.3085 64.7844 68.2391 65.1644 68.1253C65.3473 68.0776 65.518 68.0321 65.6908 67.9969C65.9672 67.941 66.1949 67.9016 66.3859 67.8685C67.5241 67.6718 67.6684 67.5019 67.6786 66.3526C67.6786 66.129 67.6786 65.8515 67.6969 65.5077C67.7152 65.164 67.6969 64.7001 67.4022 64.3895C67.1075 64.0788 66.6908 64.0457 66.3534 64.0457H66.2965C64.6522 64.0685 63.1766 64.0809 61.7904 64.0809C60.2782 64.0809 58.8819 64.0664 57.5221 64.0395H57.455C56.2559 64.0395 56.0648 64.7954 55.9774 65.5057C55.4278 70.0163 53.2811 74.1675 49.9402 77.1797C46.5994 80.1919 42.2943 81.8581 37.8331 81.8653H37.6298C33.1933 81.803 28.9306 80.0974 25.638 77.0672C22.3291 74.0594 20.2109 69.925 19.6806 65.4394C19.5973 64.7187 19.3758 64.0499 18.3229 64.0499C18.2782 64.0499 18.2315 64.0499 18.1827 64.0499C17.6583 64.0747 17.0912 64.0851 16.3961 64.0851C15.9652 64.0851 15.5363 64.0851 15.1075 64.0851C14.6786 64.0851 14.2416 64.0851 13.8107 64.0851H11.3392H9.41641H9.24569H9.04244C8.85138 64.0851 8.40625 64.0851 8.14609 64.4164C8.05827 64.546 8.00102 64.6946 7.97881 64.8505C7.9566 65.0064 7.97003 65.1654 8.01804 65.3151C8.03782 65.5234 8.02201 65.7336 7.9713 65.9364C7.86967 66.5121 7.68065 67.5931 9.11764 67.8664C9.65219 67.972 10.1969 68.0901 10.7233 68.204C11.4916 68.3696 12.2843 68.5415 13.075 68.6782C13.3391 68.7063 13.5895 68.8124 13.7953 68.9835C14.0011 69.1545 14.1534 69.3831 14.2335 69.6411C15.1014 71.8342 15.89 73.7683 16.6441 75.5534C16.9124 76.1746 16.8473 76.7089 16.4408 77.3012C16.0851 77.8168 15.7376 78.3366 15.4022 78.8585C15.0242 79.4321 14.6359 80.0243 14.2375 80.5918C13.7741 81.2503 13.831 81.7929 14.39 82.354C16.1969 84.1329 17.6603 85.6239 18.9977 87.0445C19.1129 87.1872 19.2554 87.3044 19.4165 87.3892C19.5775 87.4739 19.7539 87.5243 19.9347 87.5374C20.257 87.5147 20.5642 87.3894 20.8128 87.1791C21.325 86.8022 21.8636 86.4378 22.3859 86.0857C22.9083 85.7337 23.4327 85.3775 23.9469 85.0027C24.2494 84.7453 24.6264 84.5962 25.0201 84.5781C25.2484 84.5811 25.4738 84.6311 25.6827 84.7252L25.8473 84.7956C27.7274 85.5991 29.6705 86.4274 31.5892 87.233C31.8229 87.3166 32.0285 87.4661 32.1821 87.664C32.3357 87.862 32.4311 88.1002 32.4571 88.3512C32.5709 89.018 32.705 89.6911 32.8331 90.3413C32.9611 90.9915 33.1034 91.6977 33.2172 92.3769C33.3128 92.9443 33.5546 93.5967 34.5689 93.5967H34.6217C35.8128 93.5615 36.89 93.5511 37.9164 93.5511Z" fill="#979797"/>
<path d="M44.6481 63.4555H41.2497H30.9916C29.5539 63.4555 28.117 63.4555 26.6806 63.4555C23.5323 63.4555 21.4774 61.4696 21.3189 58.295C21.0587 53.0578 21.0668 48.6945 21.3453 44.5653C21.5323 41.8255 22.829 40.0384 25.3127 39.1024C27.6286 38.2379 30.0071 37.5587 32.4266 37.0709C32.6314 37.0292 32.8397 37.0077 33.0485 37.0067C33.7721 37.0067 34.4855 37.2697 35.2294 37.8122C36.2254 38.537 37.0302 38.8601 37.8412 38.8601C38.6522 38.8601 39.4672 38.535 40.4571 37.8081C41.1009 37.3105 41.8847 37.0368 42.6928 37.0274C42.9986 37.0295 43.3033 37.0656 43.6014 37.1351C45.7843 37.6275 47.9392 38.2407 50.0567 38.9719C52.764 39.9162 54.1664 41.7883 54.3473 44.6916C54.6199 49.3047 54.6199 53.9304 54.3473 58.5435C54.1867 61.4157 52.0831 63.4327 49.2294 63.4514C47.8798 63.4555 46.4225 63.4555 44.6481 63.4555ZM28.3514 50.7571C28.8432 50.7571 29.2071 51.2934 29.2152 52.0307C29.2437 54.4039 29.264 57.2078 29.2152 60.0013C29.2152 60.4569 29.2416 60.9229 29.5485 61.2439C29.8554 61.5648 30.3067 61.5938 30.6217 61.5938H30.7376C31.6278 61.569 32.5932 61.5566 33.7863 61.5566C34.4632 61.5566 35.14 61.5566 35.8189 61.5566H37.8514H44.0262C46.2619 61.5566 46.4652 61.3681 46.4652 59.0239V57.4501C46.4652 55.6029 46.4652 53.7564 46.4652 51.9106C46.4652 51.0636 46.8717 50.8751 47.2213 50.8068C47.2883 50.7936 47.3563 50.7867 47.4245 50.7861C47.5769 50.7811 47.727 50.8252 47.8532 50.9122C47.9795 50.9993 48.0756 51.1247 48.1278 51.2707C48.2342 51.5995 48.2784 51.946 48.2579 52.2916V52.8134C48.2701 55.257 48.2823 57.7835 48.2579 60.2685C48.2579 60.604 48.2823 61.0223 48.5546 61.3039C48.6539 61.3992 48.7713 61.4726 48.8997 61.5196C49.028 61.5667 49.1645 61.5863 49.3005 61.5773C49.4368 61.5768 49.5727 61.5651 49.7071 61.5421C51.455 61.2666 52.4611 60.1546 52.5424 58.413C52.7721 53.5258 52.7782 49.1211 52.5668 44.9525C52.455 42.7926 51.4774 41.4507 49.4875 40.728C48.0892 40.2186 46.642 39.8396 45.2396 39.471C44.5688 39.295 43.8737 39.1127 43.1969 38.9201C43.0466 38.8778 42.8914 38.8562 42.7355 38.8559C42.399 38.8718 42.0692 38.9577 41.7665 39.1083C41.4637 39.259 41.1945 39.4712 40.9754 39.7319C40.7574 39.9591 40.5879 40.2299 40.4777 40.5272C40.3676 40.8244 40.319 41.1417 40.3351 41.459C40.6156 44.4369 40.9449 47.684 41.3514 51.6807C41.3981 52.1239 41.4184 52.4883 41.2091 52.7927C40.9998 53.0971 40.8189 53.3705 40.6217 53.6583C39.9794 54.6109 39.3128 55.5967 38.6197 56.5306C38.5365 56.6649 38.4241 56.7778 38.2912 56.8608C38.1584 56.9437 38.0086 56.9944 37.8534 57.009C37.697 56.9951 37.5459 56.9445 37.4118 56.8612C37.2778 56.7778 37.1646 56.664 37.081 56.5285C36.5445 55.7996 36.0241 55.0355 35.5221 54.2962C35.201 53.824 34.8819 53.3519 34.5526 52.8859C34.3189 52.5504 34.3046 52.2005 34.3595 51.6724C34.766 47.6819 35.0993 44.4244 35.3758 41.4507C35.4286 40.8916 35.1725 40.2621 34.703 39.7236C34.2335 39.1852 33.579 38.8456 33.0119 38.8456C32.8808 38.8448 32.7502 38.8622 32.6237 38.8974C31.9367 39.0941 31.2314 39.2743 30.5465 39.4461C28.9205 39.8603 27.2436 40.2848 25.6501 40.9827C24.0993 41.6599 23.2884 42.8465 23.1746 44.5818C22.9042 48.6614 22.9022 53.0951 23.1746 58.5352C23.2457 60.0303 24.1339 61.101 25.6136 61.4716C25.8511 61.5372 26.0953 61.574 26.3412 61.5814C26.4828 61.5895 26.6244 61.5674 26.7571 61.5164C26.8898 61.4654 27.0105 61.3867 27.1115 61.2853C27.3575 61.0285 27.4611 60.6247 27.4428 60.0179C27.3859 58.2411 27.3981 56.4271 27.4083 54.6751C27.4083 53.8468 27.4083 53.0019 27.4083 52.1653C27.4083 51.544 27.4774 51.1775 27.8656 50.9331C28.0085 50.8305 28.1768 50.7709 28.3514 50.7612V50.7571ZM37.4774 40.9703C37.0892 41.9167 37.016 42.8775 36.9449 43.8073C36.9246 44.0807 36.9042 44.352 36.8758 44.6232C36.6237 46.9923 36.4184 49.1977 36.2497 51.3618C36.1684 52.4138 36.8026 53.4927 37.6949 53.8157C37.7717 53.8443 37.8529 53.859 37.9347 53.8592C38.4896 53.8592 38.7863 53.2566 39.0729 52.6726C39.1519 52.5032 39.2394 52.338 39.3351 52.1777C39.5384 51.8712 39.4835 51.4922 39.4449 51.1588C39.4449 51.0946 39.4286 51.0304 39.4225 50.9704C39.3209 49.7631 39.2335 48.7546 39.1136 47.715C39.0384 47.0731 38.9815 46.4145 38.9266 45.7767C38.7924 44.2174 38.6542 42.6021 38.2457 41.0241L37.9388 39.8417L37.4774 40.9703Z" fill="#9F865F"/>
<path d="M37.825 36.7685C35.823 36.7685 33.951 35.7538 32.5547 33.9108C30.3047 30.9433 29.6157 27.5595 30.508 23.8693C31.3657 20.3488 34.071 18.3152 37.9307 18.3152H38.1746C41.7905 18.396 44.51 20.6429 45.2702 24.1778C45.5466 25.4597 45.575 26.0209 45.5506 26.2652V26.2963C45.4876 29.3156 44.7702 31.6701 43.2905 33.7058C41.8677 35.6503 39.886 36.7665 37.825 36.7665V36.7685ZM37.699 20.092C36.9971 20.0776 36.2996 20.2078 35.6482 20.4747C34.9968 20.7416 34.4051 21.1397 33.9084 21.6452C32.6197 22.9684 31.945 24.9937 31.9612 27.5036C32.075 29.7286 33.0033 31.8292 34.5628 33.391C35.5791 34.4036 36.6746 34.9193 37.8149 34.9193C38.9551 34.9193 40.0506 34.4181 41.0893 33.4283C43.4856 31.1503 44.4368 26.6318 43.1624 23.5669C42.4937 21.9537 41.3555 20.8935 39.7803 20.4172C39.106 20.2084 38.4058 20.0989 37.701 20.092H37.699Z" fill="#9F865F"/>
<path d="M18.2846 25.9836C17.9391 25.9836 17.6851 25.7869 17.3497 25.2629C17.246 25.1014 17.1464 24.944 17.0265 24.7887C16.8387 24.538 16.6701 24.2728 16.5224 23.9956C15.7684 22.4735 14.8253 21.7321 13.6403 21.7321C13.2718 21.7402 12.9072 21.8101 12.5611 21.9392C12.3354 21.9392 12.122 21.9392 11.9147 21.9392C11.7074 21.9392 11.5082 21.9392 11.3212 21.9392C11.0509 21.9392 10.8314 21.9392 10.6281 21.9164C10.2094 21.8875 9.89238 21.7094 9.76027 21.4215C9.62815 21.1337 9.68709 20.7713 9.92896 20.4172C10.441 19.6305 11.014 18.8867 11.6424 18.1931C12.4554 17.344 12.5855 16.4411 12.0794 15.3477C11.8253 14.7948 11.618 14.1943 11.4188 13.6144C11.3395 13.3784 11.2582 13.1423 11.1729 12.9083C10.9696 12.3678 11.0021 12.0282 11.2562 11.7362C11.3371 11.6365 11.4391 11.5568 11.5546 11.503C11.67 11.4492 11.7959 11.4227 11.9229 11.4255C12.1066 11.43 12.2884 11.4643 12.4615 11.527L13.0042 11.7051C13.7904 11.9441 14.5621 12.2304 15.3151 12.5624C15.5816 12.6936 15.8729 12.7643 16.1688 12.7695C16.6017 12.7695 16.9818 12.5935 17.429 12.2C17.8761 11.8066 18.3578 11.4276 18.8273 11.0673C19.1302 10.8354 19.4371 10.5951 19.744 10.3487C19.9594 10.1523 20.2339 10.0362 20.5224 10.0194C20.6754 10.0213 20.8257 10.0596 20.9615 10.1313C21.1402 10.2046 21.2875 10.3402 21.3772 10.5139C21.467 10.6876 21.4932 10.8881 21.4513 11.0797C20.6891 14.3247 21.8273 16.6358 24.8334 17.9487C25.0267 18.0285 25.184 18.1787 25.2745 18.3701C25.3651 18.5615 25.3824 18.7804 25.3233 18.9841C25.2916 19.1833 25.1934 19.3653 25.0453 19.4992C24.8971 19.6332 24.7081 19.7109 24.5103 19.7193C21.3233 20.0444 19.5509 21.8419 19.246 25.0621C19.2368 25.2949 19.1428 25.516 18.9824 25.6821C18.8219 25.8483 18.6065 25.9476 18.3781 25.9608L18.2846 25.9836ZM14.5265 19.8622C15.9493 19.8622 16.8355 20.5331 17.4208 22.0386L17.9716 23.4592L18.1993 21.9496C18.5204 19.8228 19.4534 18.864 21.3172 18.7418L22.8151 18.6445L21.4737 17.9591C19.683 17.0417 19.059 15.7992 19.4554 13.9313L18.7481 13.5751C18.0326 14.4303 17.2684 14.8279 16.3395 14.8279C15.647 14.8022 14.9661 14.6383 14.3355 14.3454L13.116 13.8298L13.8416 14.9543C14.8355 16.495 14.6546 17.7789 13.2318 19.2492L12.3517 20.1604L13.5895 19.9533C13.8988 19.8965 14.2122 19.866 14.5265 19.8622Z" fill="#979797"/>
<path d="M57.3372 26.0022C56.9876 26.0022 56.6868 25.7309 56.5242 25.2609C56.1505 24.2205 55.8429 23.1566 55.6034 22.0759C55.4185 21.2724 54.9937 20.8334 54.2559 20.6512C53.699 20.5166 53.136 20.3405 52.5913 20.1707C52.2132 20.0527 51.823 19.9305 51.4327 19.8208C50.7986 19.6447 50.4591 19.4646 50.3778 18.9779C50.2965 18.4913 50.4896 18.1848 51.1502 17.7354C51.4835 17.5159 51.8148 17.2819 52.1339 17.0582C52.577 16.7435 53.0384 16.4204 53.5018 16.1305C53.8113 15.9649 54.0629 15.7059 54.2223 15.3889C54.3816 15.072 54.441 14.7126 54.3921 14.3599C54.3372 13.7387 54.3169 13.0967 54.2965 12.4775C54.2843 12.1048 54.2742 11.73 54.2539 11.3572C54.2193 10.6655 54.3677 10.3052 54.7681 10.1147C54.8946 10.0514 55.0336 10.0181 55.1746 10.0174C55.517 10.0445 55.84 10.1907 56.0892 10.4315C56.4185 10.7028 56.76 10.9679 57.0892 11.2247C57.5587 11.5912 58.0465 11.9702 58.4937 12.3698C58.7694 12.633 59.1322 12.7809 59.5099 12.784C59.746 12.779 59.9793 12.7313 60.199 12.6432L60.9185 12.374C61.699 12.0799 62.5059 11.7776 63.3026 11.496C63.4567 11.4396 63.6187 11.4089 63.7823 11.4048C63.9014 11.4033 64.0194 11.4274 64.1287 11.4756C64.238 11.5238 64.336 11.5949 64.4165 11.6844C64.699 11.9785 64.7437 12.316 64.5608 12.8192C64.4591 13.1009 64.3575 13.3866 64.264 13.6703C64.0445 14.3164 63.8169 14.9833 63.5364 15.6024C63.1299 16.4805 63.262 17.2198 63.9429 17.9984C64.3189 18.4333 64.6725 18.9054 65.0181 19.3652C65.2376 19.6572 65.4652 19.9616 65.699 20.2556C66.0445 20.6926 66.1055 21.0695 65.9022 21.4754C65.7417 21.7943 65.4734 21.9123 64.9144 21.9123H64.8494C64.6319 21.9123 64.4164 21.9123 64.1949 21.9123H63.1502C62.8094 21.8104 62.4565 21.7567 62.1014 21.7528C60.8494 21.7528 59.8839 22.4859 59.2295 23.9293C58.9726 24.4351 58.6633 24.9114 58.3067 25.3499L58.2254 25.4555C58.1306 25.612 58.0006 25.7432 57.8461 25.8382C57.6917 25.9333 57.5172 25.9895 57.3372 26.0022ZM56.2152 13.9499C56.6583 15.7971 56.0303 17.0023 54.1827 17.8555L53.3006 18.2697L54.203 18.6259C56.3941 19.4894 56.3941 19.4894 57.6766 22.2271L58.1725 23.2853L58.4388 22.1442C58.8148 20.5352 59.6766 19.8787 61.4124 19.8787C61.6624 19.8787 61.9327 19.8912 62.2376 19.9181L63.6461 20.0423L62.516 19.1746C61.0933 18.0875 60.89 16.818 61.7742 14.7969L62.2965 13.6082L61.1969 14.2709C60.6503 14.6303 60.0179 14.8314 59.3677 14.8528C58.5343 14.8528 57.7254 14.4386 56.8921 13.5668L55.8575 12.492L56.2152 13.9499Z" fill="#979797"/>
<path d="M42.2255 15.911C41.9684 15.8935 41.7197 15.8109 41.5019 15.6708C41.1848 15.4927 40.8677 15.2794 40.5324 15.0495C39.6807 14.4759 38.8007 13.8816 37.8637 13.8795C36.9267 13.8774 36.0974 14.4448 35.2722 14.9915C34.9267 15.2193 34.5669 15.4575 34.2234 15.6376C33.987 15.771 33.7232 15.8462 33.4531 15.8572C32.9307 15.8572 32.6177 15.472 32.5913 14.801C32.6442 14.5401 32.6991 14.2667 32.7539 13.9872C32.9003 13.2437 33.0527 12.4755 33.2214 11.6989C33.3738 11.0031 33.4247 10.1106 32.4755 9.39612C32.0098 9.02641 31.5697 8.6244 31.1584 8.19296C30.9694 8.00451 30.7803 7.814 30.5873 7.62969C30.0161 7.08713 29.8047 6.78271 29.9775 6.30228C30.1503 5.82184 30.5872 5.64375 31.2661 5.55677L31.8881 5.47187C32.5629 5.37868 33.2621 5.28135 33.9429 5.25236C34.8129 5.21715 35.3494 4.80919 35.6807 3.9353C35.9003 3.35753 36.1828 2.78391 36.4572 2.22892C36.6157 1.9038 36.7803 1.5704 36.9348 1.23285C37.1889 0.673721 37.4531 0.44593 37.8474 0.44593H37.8779C38.258 0.458356 38.5202 0.682006 38.7539 1.19558C38.9185 1.55797 39.0893 1.91623 39.26 2.27448C39.5486 2.88124 39.8454 3.50664 40.1055 4.13824C40.2155 4.45272 40.4171 4.7255 40.6834 4.92014C40.9496 5.11479 41.2678 5.22202 41.5954 5.22751C42.6865 5.31306 43.7721 5.45962 44.8474 5.66653C45.3251 5.76593 45.6604 5.99993 45.7478 6.31263C45.8352 6.62533 45.7031 7.01465 45.3616 7.3729C44.6356 8.15072 43.8653 8.88438 43.0547 9.57007C42.445 10.0733 42.262 10.6531 42.445 11.4525C42.5771 12.0323 42.6929 12.6287 42.8047 13.2044C42.8901 13.6434 42.9755 14.0824 43.0669 14.5194C43.1889 15.093 43.0873 15.4554 42.7316 15.7308C42.5926 15.8482 42.4182 15.9133 42.2377 15.9151L42.2255 15.911ZM37.8556 11.7424C38.5425 11.7424 39.2519 12.0385 40.0242 12.6453L41.1381 13.5171L40.6543 12.1731C39.9978 10.3466 40.4511 9.02337 42.1096 8.00865L42.8596 7.54893L42.0283 7.26315C41.5938 7.12522 41.1462 7.03429 40.6929 6.99187C40.195 6.93181 39.7661 6.87797 39.4226 6.64811C39.1299 6.45345 38.9897 6.11797 38.8129 5.69345C38.6305 5.18363 38.35 4.71611 37.9877 4.31841L37.4348 3.75307L37.3007 4.53999C36.9897 6.34991 35.9247 7.18239 33.8454 7.23209L32.3637 7.27143L33.6584 8.00865C35.2133 8.8929 35.6198 10.1168 35.0649 12.2352L34.7377 13.4778L35.7153 12.6598C36.4612 12.0447 37.1604 11.7424 37.8556 11.7424Z" fill="#979797"/>
<path d="M69.3415 46.7769C69.2037 46.7682 69.0693 46.73 68.9471 46.6647C68.8248 46.5994 68.7175 46.5085 68.6322 46.398C68.5305 46.2882 68.4289 46.1909 68.3151 46.0791C68.1197 45.9072 67.9462 45.711 67.7988 45.4951C66.9696 44.0911 65.8435 43.3808 64.4553 43.3808C63.7819 43.3962 63.1161 43.5308 62.4879 43.7784C62.0856 43.931 61.6609 44.0137 61.2317 44.0227C60.5935 44.0227 60.307 43.7307 60.2602 43.0474C60.4045 42.1776 60.9635 41.3389 61.3761 40.7818C62.4228 39.3612 62.4147 37.9924 61.3496 36.5967C61.0648 36.191 60.8217 35.7566 60.624 35.3003C60.557 35.1574 60.4878 35.0125 60.4208 34.8717C60.1159 34.2504 60.2887 33.9232 60.4431 33.7244C60.5254 33.6098 60.634 33.5175 60.7595 33.4558C60.885 33.394 61.0234 33.3647 61.1627 33.3703C61.2866 33.3713 61.41 33.3866 61.5305 33.4158C61.8435 33.4842 62.1586 33.5339 62.4635 33.5794C62.9197 33.6353 63.3704 33.7302 63.811 33.8632C64.1446 33.9812 64.4945 34.0441 64.8476 34.0495C65.683 34.0495 66.3903 33.6354 67.0102 32.7967C67.5313 32.1192 68.1116 31.4912 68.7439 30.9205C68.9257 30.7365 69.1688 30.6293 69.4248 30.6202C69.8313 30.6202 70.1443 30.9308 70.2378 31.4133C70.4684 32.4475 70.6045 33.5013 70.6443 34.561C70.6443 35.7704 71.3171 36.2177 72.0326 36.518C72.7053 36.8017 73.3801 37.1392 74.0326 37.4519L74.6972 37.775C75.1403 37.9821 75.3517 38.2968 75.3456 38.7131C75.3456 38.9761 75.2663 39.3592 74.6708 39.6387C74.3049 39.8106 73.9411 39.9887 73.5793 40.1647C72.9919 40.4505 72.3862 40.7466 71.7826 41.0096C71.0448 41.3348 70.7114 41.8173 70.6667 42.6249C70.6322 43.2648 70.5326 43.9233 70.437 44.5591C70.374 44.9732 70.309 45.4019 70.2622 45.8306C70.2074 46.3255 70.0021 46.603 69.5956 46.7335C69.5135 46.7609 69.4279 46.7756 69.3415 46.7769ZM65.3639 41.2664C66.3944 41.2664 67.2582 41.8069 68.0793 42.9645L68.9411 44.1801L68.8131 42.687C68.6545 40.8088 69.4574 39.7174 71.4188 39.1459L72.3781 38.8684L71.5 38.3838C70.3578 37.7626 69.7826 37.4395 69.4675 36.9881C69.1525 36.5366 68.998 35.8305 68.7114 34.4347L68.4878 33.3434L67.9574 34.3208C67.2907 35.5509 66.4289 36.1494 65.3151 36.1494C64.8007 36.1368 64.2919 36.0382 63.809 35.8574L62.3537 35.3438L63.37 36.5221C64.624 37.9717 64.624 39.3012 63.37 40.9641L62.4655 42.1631L63.8435 41.5998C64.3247 41.3906 64.8408 41.2774 65.3639 41.2664Z" fill="#979797"/>
<path d="M6.34756 46.779C6.25337 46.7779 6.16 46.7612 6.07114 46.7293C5.67887 46.5968 5.48577 46.3151 5.42479 45.8016C5.37804 45.3977 5.313 44.9939 5.24796 44.6025C5.13187 43.9871 5.0565 43.3645 5.02235 42.7388C4.9939 41.838 4.61586 41.3058 3.76017 40.9537C3.35366 40.788 2.94715 40.583 2.55284 40.3842C2.21747 40.2144 1.87195 40.0405 1.51829 39.8852C0.770324 39.5559 0.34553 39.3385 0.351627 38.7006C0.351627 38.0959 0.758121 37.8827 1.45934 37.5555L1.55489 37.512L2.43293 37.0978C2.95325 36.8514 3.48985 36.5967 4.02034 36.3585C4.30873 36.2497 4.55762 36.0538 4.73378 35.797C4.90994 35.5402 5.00496 35.2347 5.0061 34.9213C5.05488 34.2545 5.15447 33.5732 5.25 32.9126C5.313 32.4819 5.37805 32.0346 5.42886 31.5894C5.50406 30.937 5.81505 30.761 6.07928 30.6803C6.16503 30.654 6.25395 30.64 6.34349 30.6388C6.48098 30.6459 6.6154 30.6827 6.73774 30.747C6.86008 30.8113 6.96752 30.9015 7.05284 31.0116C7.28658 31.2684 7.53048 31.521 7.76422 31.7654C8.21725 32.2199 8.64671 32.6983 9.05082 33.1984C9.51017 33.7886 10.0468 34.0764 10.6931 34.0764C10.9438 34.0739 11.1932 34.0384 11.435 33.9708C11.939 33.8383 12.4736 33.7451 12.9898 33.654C13.3964 33.5836 13.8029 33.5111 14.2094 33.42C14.3155 33.3961 14.4238 33.3836 14.5325 33.3827C14.6795 33.3795 14.825 33.4129 14.9564 33.48C15.0879 33.5471 15.2012 33.646 15.2866 33.7679C15.3928 33.9174 15.4528 34.0958 15.4589 34.2802C15.4651 34.4647 15.4171 34.6468 15.3211 34.8033C14.7846 35.8698 14.3171 36.7582 13.7866 37.6197C13.3272 38.3672 13.3313 39.0485 13.8029 39.8272C14.3631 40.7317 14.8701 41.6694 15.3211 42.6352C15.4019 42.7869 15.4442 42.9566 15.4442 43.1291C15.4442 43.3016 15.4019 43.4714 15.3211 43.623C15.2367 43.7513 15.1231 43.8568 14.9901 43.9307C14.857 44.0046 14.7084 44.0447 14.5569 44.0476L13.5854 43.8715C12.7866 43.7266 11.9594 43.5795 11.1606 43.3828C10.9838 43.3375 10.8022 43.3139 10.6199 43.3124C10.0793 43.3124 9.63211 43.5485 9.21138 44.0538C8.70731 44.6626 8.15244 45.2528 7.61789 45.8264C7.45529 45.9983 7.29472 46.1702 7.13415 46.3441C6.85163 46.6403 6.60366 46.779 6.34756 46.779ZM6.86587 34.7184C7.01424 36.6008 6.23781 37.7128 4.34757 38.3258L3.08332 38.74L4.35568 39.1231C6.21137 39.6843 7.00813 40.7798 6.93496 42.7015L7.68902 42.9314C8.33943 41.8359 9.12804 41.3244 10.1728 41.3244C10.7432 41.3401 11.3065 41.4571 11.8374 41.6702L12.6179 41.9602L12.3638 41.1546C12.2095 40.7062 12.0049 40.2775 11.7541 39.8769C11.502 39.442 11.3028 39.1003 11.3008 38.7089C11.2988 38.3175 11.4797 38.0214 11.7073 37.6114C11.9973 37.1471 12.2095 36.6369 12.3354 36.1017L12.5183 35.2133L11.7398 35.6544C11.2685 35.9427 10.7324 36.1031 10.1829 36.1204C9.29878 36.1204 8.49593 35.5964 7.58129 34.4243L6.75 33.3599L6.86587 34.7184Z" fill="#979797"/>
</g>
<defs>
<clipPath id="clip0_168_1142">
<rect width="75" height="95" fill="white" transform="translate(0.351562 0.447998)"/>
</clipPath>
</defs>
</svg>
