<svg width="72" height="92" viewBox="0 0 72 92" fill="none" xmlns="http://www.w3.org/2000/svg">
<g clip-path="url(#clip0_168_1112)">
<path d="M63.0024 91.4822C62.0222 91.4811 61.0473 91.3377 60.1087 91.0565C58.2953 90.5435 56.6643 89.5313 55.4035 88.1366C55.1648 87.8526 54.8629 87.6277 54.5218 87.48C54.1806 87.3322 53.8095 87.2656 53.438 87.2853C49.5611 87.2853 45.6886 87.2853 41.8203 87.2853H30.8592C22.8667 87.2853 14.3053 87.2853 5.86795 87.3236H5.84014C3.00417 87.3236 0.762772 85.6104 0.266583 83.0672C0.203721 82.6746 0.17792 82.2771 0.189565 81.8797V66.3161C0.189565 52.1359 0.189575 37.4725 0.172465 23.0497C0.160822 22.7568 0.214202 22.465 0.328798 22.195C0.443394 21.925 0.616384 21.6835 0.835471 21.4876C8.21629 14.1261 14.8464 7.48822 21.1065 1.19298C21.3305 0.953409 21.6046 0.76575 21.9095 0.643283C22.2144 0.520817 22.5427 0.466539 22.871 0.484291C30.81 0.499189 38.8774 0.501312 46.6774 0.505568H58.5774C61.9416 0.505568 64.1017 2.58695 64.2172 5.9325C64.2172 6.20278 64.2172 6.48157 64.2172 6.75186C64.2172 6.86465 64.2172 6.97532 64.2172 7.08812V45.0894C64.2172 53.7278 64.2173 62.6598 64.2001 71.4451C64.2001 72.3623 64.4803 72.9753 65.1455 73.4945C66.1597 74.2507 67.1221 75.0733 68.0264 75.9569C70.7875 78.7874 71.7457 82.0201 70.873 85.5657C69.9876 89.1603 66.9035 91.4822 63.0132 91.4822H63.0024ZM52.2317 65.218C51.8168 65.218 51.5409 65.5265 51.3249 65.8309C49.6933 68.1378 47.6312 70.111 45.2508 71.643C45.037 71.7856 44.6991 71.9984 44.6456 72.3709C44.6374 72.5263 44.663 72.6816 44.7205 72.8263C44.7781 72.971 44.8663 73.1017 44.9792 73.2094C46.7287 75.2546 48.4975 77.3466 50.2106 79.3663C52.2167 81.7392 54.2935 84.1909 56.3531 86.5894C58.0876 88.6133 60.2991 89.654 62.9233 89.6838C66.1165 89.6838 68.3664 88.0685 69.0979 85.2784C69.9234 82.1414 69.008 79.296 66.3838 76.8231C65.9197 76.3974 65.4214 75.9718 64.9401 75.593C64.707 75.4036 64.476 75.2163 64.2472 75.0247L61.7427 72.9221C58.9003 70.5363 55.9681 68.0698 53.0808 65.6308C52.8558 65.3976 52.5549 65.2513 52.2317 65.218ZM3.49395 23.3838C3.0662 23.3838 2.59566 23.4285 2.27484 23.7477C1.95403 24.0669 1.90699 24.5543 1.90913 25.0246C1.93265 40.3116 1.93265 55.856 1.93051 70.8896V81.2817C1.93051 82.8204 2.25346 83.8589 2.94855 84.5506C3.64365 85.2422 4.68309 85.5636 6.22513 85.5636H53.0872L52.5418 84.8741L52.2723 84.5314C52.1205 84.3356 51.9943 84.176 51.8639 84.0207L49.5711 81.32C47.6334 79.0428 45.6315 76.6869 43.6938 74.3437C43.3516 73.933 42.9153 73.5116 42.2523 73.5116C41.9138 73.5237 41.5813 73.6041 41.2749 73.7478C38.4346 74.973 35.3729 75.6088 32.2772 75.6164C30.6178 75.612 28.9634 75.4351 27.341 75.0886C14.7224 72.4155 6.66143 60.3933 8.97342 47.7177C9.98175 42.2662 12.9253 37.3567 17.2675 33.8844C21.5124 30.4615 26.805 28.5844 32.2687 28.5638C34.9142 28.5639 37.5401 29.0152 40.0323 29.8982C44.613 31.5199 48.5817 34.5042 51.4003 38.4464C54.2188 42.3886 55.7508 47.0979 55.7885 51.9358C55.817 55.5229 55.0203 59.0689 53.4594 62.3023C53.4401 62.3385 53.423 62.3747 53.4037 62.4087C53.2498 62.7088 52.9632 63.26 53.6304 63.8176C55.6002 65.4414 57.5272 67.0652 59.5697 68.7848L62.3287 71.1046L62.3801 70.2533C62.3801 70.1277 62.395 70.0277 62.4014 69.9468C62.4014 69.7979 62.4186 69.7021 62.4186 69.6063V61.8171C62.4186 43.2151 62.4186 24.6125 62.4186 6.00911C62.4186 3.58509 61.0968 2.30178 58.5966 2.29965H46.3031C39.1255 2.29965 31.704 2.29965 24.4045 2.28262C24.0323 2.28262 23.6238 2.3188 23.3501 2.59547C23.0763 2.87214 23.04 3.27649 23.0421 3.63829C23.0699 7.95429 23.0656 12.3427 23.0613 16.5842V19.4956C23.0613 22.0494 21.7075 23.4136 19.1517 23.4157H15.8944H11.2469C8.22699 23.4157 5.78241 23.4051 3.54741 23.3838H3.49395ZM32.1532 30.3366C20.1762 30.3366 10.4192 40.0647 10.3828 52.0231C10.3465 63.9815 20.0586 73.7542 32.027 73.8393H32.1874C44.1836 73.8393 53.9898 64.1539 54.0432 52.2487C54.0988 40.22 44.3248 30.3899 32.2558 30.3281L32.1532 30.3366ZM3.37416 21.6004H12.2564C14.7288 21.6004 17.1884 21.6004 19.6479 21.6004C20.6852 21.6004 21.2798 20.9215 21.2798 19.7446C21.2798 16.0287 21.2798 12.3129 21.2798 8.70981V4.12778L3.37416 21.6004Z" fill="#979797"/>
<path d="M32.4715 11.0721C32.1996 11.0915 31.9269 11.0492 31.6738 10.9487C31.5012 10.8861 31.3561 10.7655 31.2636 10.6077C31.171 10.4499 31.1368 10.2649 31.1669 10.0846C31.1968 9.57175 31.4813 9.44618 31.6909 9.38021C32.0342 9.30044 32.3864 9.26468 32.7388 9.2738H42.5364H51.6304C51.9536 9.26311 52.277 9.28737 52.595 9.34616C52.7706 9.37075 52.931 9.45913 53.0451 9.59429C53.1592 9.72945 53.219 9.90184 53.2131 10.0783C53.2467 10.2715 53.2069 10.4703 53.1013 10.6359C52.9958 10.8015 52.832 10.9221 52.642 10.9742C52.4131 11.0519 52.1713 11.0852 51.9298 11.0721H32.4672H32.4715Z" fill="#9F865F"/>
<path d="M51.9859 19.6041H51.7378C51.648 19.6041 51.556 19.6041 51.4662 19.6041H32.8954H32.6602H32.4463C32.3607 19.6041 32.2731 19.6041 32.1875 19.5935C31.27 19.5147 31.1566 19.0955 31.1716 18.6549C31.1844 18.2484 31.3127 17.8334 32.1661 17.8271C33.3531 17.8164 34.5401 17.8143 35.4405 17.8143H51.9089C52.0672 17.8143 52.1869 17.8143 52.296 17.8271C53.0831 17.8952 53.2007 18.2889 53.2114 18.6656C53.2242 19.0806 53.1173 19.4807 52.2639 19.5935C52.1716 19.6033 52.0787 19.6069 51.9859 19.6041Z" fill="#9F865F"/>
<path d="M32.1144 62.2598C24.8041 61.9895 19.068 58.8546 15.0536 52.9255C14.6429 52.3189 14.6258 51.8826 15.0322 51.2612C18.7301 45.4406 25.1528 41.9673 32.2106 41.9673C39.2685 41.9673 45.6569 45.4278 49.3505 51.225C49.7783 51.8805 49.759 52.3381 49.3206 52.9765C45.1928 58.9887 39.5636 62.0257 32.1144 62.2598ZM32.2085 43.7337C26.2029 43.7337 20.7619 46.4216 17.2843 51.108C16.8352 51.7145 16.6619 52.2764 17.2843 53.0531C21.0014 57.765 25.9976 60.2741 32.1336 60.5125H32.1635C38.3894 60.3146 43.4369 57.782 47.1669 52.985C47.6566 52.3466 47.6652 51.8592 47.1947 51.2144C43.7299 46.46 38.2718 43.7337 32.2085 43.7337Z" fill="#9F865F"/>
<path d="M32.2515 58.1247C30.6229 58.1292 29.0588 57.4918 27.9013 56.3519C27.3308 55.7977 26.8773 55.1357 26.5674 54.4048C26.2574 53.6739 26.0972 52.8888 26.0962 52.0954C26.1166 50.4949 26.7635 48.9654 27.8993 47.832C29.0352 46.6986 30.5704 46.0506 32.1788 46.0258C33.7861 46.0275 35.3274 46.6621 36.4659 47.791C37.6044 48.92 38.2476 50.4514 38.255 52.0507C38.255 55.4559 35.6393 58.1247 32.2665 58.1353L32.2515 58.1247ZM32.2045 47.7816C31.6413 47.7816 31.0837 47.8922 30.5636 48.1072C30.0435 48.3222 29.5712 48.6372 29.1737 49.0343C28.7763 49.4313 28.4616 49.9025 28.2477 50.4209C28.0337 50.9393 27.9247 51.4946 27.927 52.055C27.9199 53.185 28.3582 54.2728 29.1479 55.0849C29.9376 55.897 31.0158 56.3686 32.151 56.3987H32.2216C33.3625 56.3893 34.4531 55.9301 35.2543 55.1218C36.0707 54.3133 36.532 53.216 36.5376 52.0699C36.5156 50.9404 36.0541 49.8634 35.2504 49.0656C34.4466 48.2678 33.3631 47.8113 32.228 47.7922H32.2152L32.2045 47.7816Z" fill="#9F865F"/>
</g>
<defs>
<clipPath id="clip0_168_1112">
<rect width="71" height="91" fill="white" transform="translate(0.172363 0.482178)"/>
</clipPath>
</defs>
</svg>
