<svg width="81" height="94" viewBox="0 0 81 94" fill="none" xmlns="http://www.w3.org/2000/svg">
<g clip-path="url(#clip0_168_1130)">
<path d="M19.9094 9.15518C19.676 9.15531 19.4511 9.06754 19.2798 8.90944C19.1084 8.75134 19.0033 8.53457 18.9854 8.3025C19.0014 8.03674 19.12 7.7875 19.3163 7.60706C19.5147 7.3865 19.7908 7.25082 20.0871 7.22834C20.2043 7.22654 20.3206 7.24823 20.4292 7.29212C20.5378 7.33601 20.6365 7.40119 20.7194 7.48382C20.8023 7.56644 20.8676 7.66482 20.9116 7.77311C20.9557 7.8814 20.9774 7.99741 20.9756 8.11424C20.9794 8.24971 20.9555 8.38454 20.9055 8.51055C20.8555 8.63656 20.7804 8.75113 20.6846 8.84733C20.5852 8.94796 20.4665 9.02766 20.3357 9.08168C20.2048 9.13571 20.0644 9.16296 19.9227 9.16182L19.9094 9.15518Z" fill="#9F865F"/>
<path d="M23.6253 93.4798C23.1677 93.4643 22.9145 93.3026 22.6235 92.399C22.0312 90.577 21.4388 88.7557 20.8465 86.9352C19.9313 84.1357 18.9851 81.2388 18.0811 78.3862C17.9678 78.0252 17.699 77.1769 16.7127 77.1769C16.5002 77.1821 16.2887 77.2095 16.0819 77.2589C13.1499 77.8945 10.1601 78.5102 7.27021 79.106C5.30663 79.5113 3.34305 79.9144 1.38168 80.3285C1.22488 80.3639 1.06488 80.3832 0.904138 80.3861C0.751677 80.3984 0.598959 80.3659 0.46477 80.2927C0.33058 80.2195 0.220748 80.1088 0.148882 79.9742C-0.0732429 79.6331 -0.110974 79.2898 0.346603 78.7162C1.97552 76.6594 3.60443 74.6004 5.23335 72.5392C8.51191 68.3932 11.8971 64.1076 15.28 59.9262C16.2263 58.7545 17.026 57.4146 16.4684 55.5542C15.9309 53.7581 14.9513 52.5266 13.4786 51.7891C13.061 51.5809 12.6345 51.3905 12.2236 51.2089C11.8127 51.0273 11.3817 50.8346 10.9775 50.6308C10.0727 50.1852 9.26627 49.5638 8.60562 48.8031C7.94496 48.0425 7.44339 47.1579 7.1303 46.2013C6.82307 45.2398 6.71196 44.2268 6.80351 43.2219C6.89507 42.2169 7.18742 41.2404 7.66338 40.3499C7.96991 39.763 8.30977 39.1628 8.67183 38.5781C9.93128 36.5139 9.93128 34.39 8.67183 32.2682L8.57411 32.1066C7.83444 30.8574 7.13473 29.6703 6.89706 28.2927C6.61737 26.7353 6.83682 25.1296 7.52422 23.7035C8.21163 22.2775 9.33205 21.1036 10.7265 20.3484C11.1818 20.1048 11.6527 19.9054 12.1503 19.684C12.5301 19.5178 12.9211 19.3429 13.3054 19.1524C15.2001 18.2156 16.2841 16.7162 16.5284 14.7229C16.5484 14.5612 16.5884 14.3863 16.6306 14.2024L16.6461 14.1448C16.8438 13.2966 17.2836 13.2966 17.448 13.2966C17.5293 13.2976 17.6103 13.3057 17.6901 13.321C18.05 13.3896 18.5208 13.5712 18.4453 14.3707C18.1721 17.2832 16.7727 19.4182 14.2805 20.7183C13.874 20.9397 13.4497 21.1125 13.0033 21.303C12.6034 21.4757 12.1881 21.6529 11.786 21.8544C11.1115 22.1863 10.5096 22.6479 10.0148 23.2128C9.52 23.7776 9.14221 24.4345 8.90312 25.1455C8.66404 25.8566 8.5684 26.6078 8.62172 27.3558C8.67505 28.1039 8.87625 28.834 9.2138 29.5042C9.45148 29.987 9.72246 30.4477 9.98235 30.8951C10.0934 31.0833 10.2045 31.2716 10.3111 31.4598C11.8215 34.1176 11.8393 36.6889 10.3688 39.3023C10.24 39.5238 10.109 39.7453 9.9779 39.98C9.73801 40.3853 9.49146 40.8083 9.26934 41.2424C8.90979 41.9222 8.69038 42.6669 8.624 43.4326C8.55762 44.1983 8.64562 44.9695 8.88284 45.7007C9.12668 46.4317 9.51464 47.1066 10.0239 47.6859C10.5331 48.2652 11.1534 48.7371 11.8482 49.0738C12.328 49.313 12.8522 49.5478 13.4031 49.7715C16.6461 51.087 18.3143 53.5366 18.512 57.2286C18.6786 60.533 20.5688 62.812 23.5653 63.3192C23.82 63.3622 24.0778 63.3837 24.3361 63.3834C25.0835 63.356 25.8249 63.2385 26.544 63.0335C26.7661 62.9803 26.9882 62.9249 27.1992 62.8784C27.8886 62.7257 28.5922 62.6463 29.2984 62.6415C31.3886 62.6415 33.1411 63.4188 34.6582 65.0179C34.7826 65.1463 34.9092 65.2726 35.0358 65.3988C35.2902 65.6379 35.5263 65.8955 35.7422 66.1696C36.2856 66.9115 36.9978 67.5144 37.8203 67.9286C38.6427 68.3429 39.552 68.5568 40.4734 68.5526C41.3907 68.5558 42.2962 68.3464 43.1185 67.9409C43.9407 67.5354 44.6572 66.9449 45.2113 66.2161C46.2531 64.8518 47.2838 63.9504 48.4521 63.3768C49.483 62.8704 50.6171 62.6082 51.7663 62.6104C52.7093 62.6207 53.6457 62.77 54.545 63.0534C55.1856 63.2498 55.8517 63.3513 56.5219 63.3546C59.896 63.3546 62.4083 60.7434 62.4949 57.1533C62.5815 53.5632 64.3052 51.0671 67.6171 49.756C67.9058 49.6408 68.1813 49.5101 68.4478 49.3839L68.7566 49.2377C70.4247 48.467 71.6175 47.2046 72.1129 45.6941C72.6082 44.1836 72.3905 42.4761 71.5065 40.8903L71.1866 40.3255C70.4225 38.979 69.7006 37.7077 69.5584 36.2016C69.383 34.3501 69.9161 32.5606 71.291 30.399C72.2684 28.8486 72.5771 27.4378 72.2573 25.9318C72.1068 25.0664 71.7577 24.2474 71.2371 23.539C70.7165 22.8305 70.0386 22.2516 69.2563 21.8478C68.7791 21.5925 68.2866 21.3669 67.7814 21.1723C64.3763 19.8634 62.6348 17.3673 62.4616 13.5424C62.4127 12.4572 62.2106 10.8626 61.0422 9.55586C59.836 8.20929 58.3589 7.52714 56.6574 7.52714C56.1299 7.53017 55.6041 7.58957 55.0892 7.70432L54.6317 7.8062C53.6032 8.02767 52.6325 8.24915 51.6418 8.24915C51.3077 8.25057 50.974 8.22315 50.6445 8.16721C48.7031 7.82835 47.0905 6.87378 45.7445 5.24815C44.6716 3.96359 43.5632 2.78312 41.7706 2.42433C41.327 2.33337 40.8753 2.28663 40.4223 2.2848C39.6737 2.28563 38.9327 2.43531 38.2428 2.72509C37.5528 3.01487 36.9277 3.43892 36.4041 3.97245C36.0265 4.33788 35.6822 4.72768 35.349 5.10419C34.8311 5.73665 34.2432 6.30873 33.5964 6.80956C32.3353 7.74327 30.8047 8.24447 29.2339 8.23808C28.2641 8.22646 27.3014 8.07121 26.3774 7.77741C26.1864 7.71761 25.6755 7.55593 25.8421 6.67003C25.8985 6.47978 26.016 6.31324 26.1765 6.19601C26.337 6.07878 26.5317 6.01733 26.7306 6.0211C26.7933 6.02092 26.8559 6.0276 26.9171 6.04103C27.0971 6.07647 27.277 6.11634 27.4569 6.1562C28.0469 6.31203 28.6528 6.40045 29.2628 6.41976C29.4231 6.41999 29.5833 6.41112 29.7426 6.39318C31.3997 6.20271 32.7857 5.3899 33.9852 3.90822C35.54 1.97252 37.146 0.920508 39.0074 0.601583C39.5261 0.512265 40.0514 0.466335 40.5778 0.464269C42.4551 0.446876 44.2647 1.16226 45.6201 2.45755C46.0855 2.8819 46.5163 3.34255 46.9084 3.83513C48.2633 5.53386 49.9182 6.3954 51.8262 6.3954C52.5269 6.38869 53.2234 6.28661 53.8964 6.09198C54.8015 5.82699 55.7387 5.6869 56.6819 5.6756C57.968 5.66159 59.2333 5.9994 60.3403 6.65231C62.797 8.08526 64.0964 10.1693 64.2008 12.8426C64.3429 16.4238 65.9045 18.6297 69.1097 19.7814C71.9574 20.8046 73.65 22.9064 74.1409 26.0315C74.3463 27.4395 74.1089 28.8764 73.4612 30.1443C73.182 30.7502 72.8614 31.3363 72.5016 31.8984C70.9845 34.1884 70.9845 36.5494 72.5016 38.9169C73.168 39.949 73.8077 41.083 74.0409 42.3786C74.6673 45.8447 73.048 49.0916 69.9161 50.6463C69.2497 50.9741 68.5566 51.2731 67.9414 51.5322C65.6379 52.5178 64.4296 54.438 64.2474 57.4035C64.2411 57.6335 64.2809 57.8625 64.3644 58.077C64.448 58.2915 64.5736 58.4872 64.7339 58.6527L64.7916 58.7258C69.8827 65.1368 74.9716 71.5507 80.0583 77.9676C80.1405 78.0717 80.2271 78.1736 80.3137 78.2777C80.9623 79.055 81.16 79.385 80.8313 79.9409C80.7703 80.0796 80.6683 80.1964 80.5388 80.2756C80.4094 80.3548 80.2587 80.3926 80.1071 80.3839C79.7993 80.3661 79.4945 80.3134 79.1987 80.2266C79.0498 80.1912 78.901 80.1558 78.7544 80.1248C74.6073 79.2765 69.7073 78.2644 64.8205 77.1946C64.6341 77.1504 64.4434 77.1266 64.2519 77.1238C63.2767 77.1238 63.0102 77.9632 62.8969 78.3242C61.7863 81.8102 60.6401 85.3472 59.5229 88.769L58.4966 91.9206C58.4766 91.9804 58.4544 92.038 58.4322 92.0956C58.38 92.2212 58.3355 92.3499 58.2989 92.4809C58.1013 93.2583 57.7947 93.4288 57.3638 93.451H57.2927C56.9062 93.451 56.6397 93.3092 56.342 92.5651C55.4335 90.2573 54.4984 87.9141 53.5921 85.6506C53.2071 84.685 52.8213 83.7186 52.4348 82.7515L46.4375 67.7243L45.7311 68.3223C44.2776 69.5978 42.414 70.312 40.4779 70.3355C38.6364 70.3355 36.855 69.6711 35.1824 68.3422L34.4805 67.7886L32.237 73.4141C30.7814 77.064 29.3287 80.7095 27.8789 84.3505C26.8068 87.0407 25.7384 89.7331 24.6737 92.4278C24.3583 93.2251 24.1317 93.4554 23.6608 93.4554L23.6253 93.4798ZM51.7463 64.4531C50.7948 64.4427 49.856 64.6712 49.0163 65.1176C48.059 65.6292 47.8169 66.3113 48.2345 67.3323C49.5317 70.4861 50.8111 73.713 52.0484 76.8336C52.4082 77.7446 52.7695 78.6549 53.1323 79.5644C53.8853 81.4625 54.6383 83.3605 55.4269 85.3538L57.2394 89.9273L58.9631 84.6008C59.9205 81.6441 60.8401 78.8003 61.7663 75.9632C62.0728 75.0264 62.3283 75.0264 62.6548 75.0264C62.8528 75.0304 63.0499 75.0534 63.2434 75.095C64.8761 75.414 66.5309 75.7595 68.1302 76.0917L70.4736 76.5767L74.2075 77.3364L77.7793 78.0628L63.8987 60.5662L63.3767 61.2307C61.4265 63.7422 60.1159 64.6414 57.7636 65.0777C57.4339 65.1383 57.0993 65.168 56.7641 65.1663C55.8214 65.1308 54.8853 64.9942 53.9719 64.7588L53.3256 64.6214C52.8064 64.511 52.2771 64.4546 51.7463 64.4531ZM18.2543 75.0198C18.6785 75.0198 18.9207 75.0197 19.4293 76.6188C20.2823 79.2765 21.1375 81.9099 22.0015 84.572L23.4076 88.9152L24.1739 88.2086C24.2072 88.1776 24.2383 88.1533 24.2672 88.1311C24.4249 88.0196 24.5481 87.8661 24.6226 87.6882C25.8177 84.6968 27.0119 81.7032 28.2055 78.7073C29.7559 74.8226 31.3063 70.9387 32.8568 67.0555C33.0633 66.5372 33.1189 65.8063 32.2104 65.2571C31.3186 64.7105 30.2919 64.4221 29.2451 64.4243C28.6693 64.4261 28.0961 64.5005 27.5391 64.6458C26.4859 64.9414 25.3989 65.1007 24.3049 65.1198C22.779 65.1462 21.2854 64.6801 20.0468 63.7909C19.096 63.0864 18.2778 62.2196 17.6301 61.2307L17.1192 60.4909L3.37636 77.8236L4.97348 77.6376L5.39994 77.5933C5.63098 77.5758 5.86089 77.5455 6.08855 77.5025L8.16094 77.0595C11.0619 76.4527 14.0628 75.8259 17.0104 75.1859C17.418 75.0855 17.8347 75.0261 18.2543 75.0087V75.0198Z" fill="#979797"/>
<path d="M40.1271 56.7282C37.3864 56.7164 34.6753 56.1622 32.1511 55.0977C29.6269 54.0332 27.3398 52.4795 25.4224 50.5269C23.417 48.5283 21.8293 46.1527 20.7514 43.5379C19.6735 40.923 19.1268 38.1208 19.1429 35.2938C19.1851 23.5932 28.741 14.0764 40.4425 14.0764H40.5758C43.382 14.082 46.1594 14.6413 48.7479 15.7219C51.3364 16.8026 53.6849 18.3833 55.658 20.3729C57.6364 22.3573 59.2015 24.7124 60.2632 27.3024C61.3249 29.8924 61.8622 32.6663 61.8442 35.4643C61.8131 47.3819 52.2928 56.726 40.1848 56.726L40.1271 56.7282ZM40.4914 15.9501C29.725 15.9501 20.9599 24.612 20.9444 35.2606C20.9444 46.0664 29.6739 54.8878 40.4203 54.9232H40.4869C51.2555 54.9232 60.0183 46.2081 60.0339 35.4975C60.0339 24.5411 51.4599 15.9545 40.5047 15.9501H40.4914Z" fill="#9F865F"/>
<path d="M38.0238 42.3965C37.784 42.3965 37.4397 42.175 36.9688 41.7542L35.8581 40.7332C34.3255 39.3246 32.7484 37.8696 31.1935 36.4255C30.2272 35.5263 30.6315 35.0767 30.8248 34.8597C30.8921 34.7729 30.9777 34.7019 31.0756 34.6518C31.1735 34.6016 31.2812 34.5736 31.3912 34.5696C31.6955 34.5696 32.082 34.7689 32.4774 35.1321L37.9816 40.1751L48.1838 29.4092C48.2549 29.3339 48.326 29.2563 48.3948 29.1877C48.5279 29.0309 48.6711 28.8829 48.8235 28.7447C49.0109 28.565 49.2534 28.4535 49.5121 28.428C49.6254 28.4354 49.7361 28.465 49.8379 28.5152C49.9397 28.5654 50.0305 28.6351 50.1052 28.7204C50.5206 29.1301 50.5295 29.542 50.1319 29.9761C48.8924 31.336 47.6019 32.6959 46.3557 34.0092L45.5961 34.811C43.2571 37.2782 41.1114 39.535 39.0367 41.7099C38.6036 42.1706 38.2615 42.3965 38.0238 42.3965Z" fill="#9F865F"/>
</g>
<defs>
<clipPath id="clip0_168_1130">
<rect width="81" height="93" fill="white" transform="translate(-0.00634766 0.482178)"/>
</clipPath>
</defs>
</svg>
