<svg width="93" height="88" viewBox="0 0 93 88" fill="none" xmlns="http://www.w3.org/2000/svg">
<g clip-path="url(#clip0_168_1137)">
<path d="M92.5303 38.2254C92.5303 32.6616 92.5303 27.0971 92.5303 21.5319C92.5303 20.1764 91.769 19.7359 90.6218 20.4487C80.4191 26.8382 70.2157 33.2368 60.0117 39.6447C59.1634 40.1724 59.0532 40.7491 59.5875 41.5726C60.4909 42.9643 61.3476 44.3836 62.2192 45.7944C62.7154 46.5988 62.586 46.8243 61.6212 46.9541C60.9235 47.0499 60.4167 46.6562 59.8696 46.3455C58.7478 45.7071 57.7045 44.7581 56.3177 44.8836C53.2641 45.1645 50.2084 45.4816 47.176 45.9242C46.8951 45.9845 46.6044 45.9804 46.3253 45.9122C46.0463 45.8441 45.7862 45.7136 45.5644 45.5305C44.1309 44.4091 42.5956 44.224 40.8992 44.8922C40.087 45.2156 39.2027 45.3454 38.4011 45.7114C36.1258 46.7605 34.0922 46.137 32.084 44.9815C31.6154 44.7092 31.6133 44.4985 31.8847 44.0921C32.4148 43.3005 32.9047 42.4834 33.3988 41.6705C34.0349 40.6172 33.9692 40.2214 32.9747 39.5915C22.796 33.2078 12.6174 26.8275 2.43877 20.4509C1.29791 19.7359 0.530273 20.17 0.530273 21.5148C0.530273 32.6439 0.534514 43.7729 0.542996 54.9019C0.523065 55.2346 0.599564 55.566 0.763257 55.856C0.92695 56.146 1.17083 56.3822 1.46543 56.5361C6.49113 59.6599 11.4977 62.8156 16.5213 65.9564C17.4883 66.5608 17.976 66.5033 18.5231 65.5457C18.8921 64.9074 19.1593 65.0308 19.6576 65.3479C21.5513 66.5714 23.4428 67.8013 25.3831 68.9334C26.2016 69.4079 26.3607 69.7697 25.7648 70.5549C24.7491 71.8933 24.4925 73.3914 25.328 74.9214C26.1317 76.4109 27.4273 77.0493 29.1047 76.9216C29.5097 76.8876 29.6793 76.9982 29.8511 77.4174C30.553 79.1368 31.8614 80.0156 33.7359 79.8922C34.2597 79.8581 34.4527 80.0518 34.6435 80.4923C35.3476 82.118 36.6029 82.9649 38.3799 82.8691C38.9907 82.8351 39.1942 83.05 39.4402 83.5777C40.7125 86.4079 44.3726 86.6994 46.1454 84.1438C46.3583 83.8621 46.5463 83.5624 46.7073 83.2479C47.0381 82.5329 47.3435 82.3457 48.0624 82.9457C49.3517 84.0416 50.7555 84.9992 52.0914 86.0546C53.3637 87.0739 54.7909 87.3037 56.2498 86.6568C57.7087 86.0099 58.4955 84.7694 58.4721 83.116C58.4721 82.6904 58.5676 82.55 59.0086 82.4159C60.8747 81.8477 61.7526 80.6667 61.865 78.692C61.8841 78.3218 61.865 78.0941 62.357 77.9537C64.2315 77.4259 65.2367 76.1492 65.2558 74.1638C65.2558 73.8148 65.2918 73.6382 65.7074 73.4978C67.9976 72.7211 68.7928 71.4677 68.5723 68.9972C68.5329 68.8143 68.5569 68.6233 68.6401 68.4558C68.7234 68.2884 68.861 68.1543 69.0304 68.0758C70.5635 67.1374 72.0903 66.1926 73.5959 65.2117C74.0454 64.9201 74.2321 65.0457 74.495 65.4479C75.2054 66.5118 75.5553 66.5884 76.6431 65.9075C81.5988 62.8071 86.5418 59.6855 91.5124 56.6064C92.2716 56.1361 92.5388 55.5722 92.5345 54.6912C92.5069 49.1991 92.5218 43.7048 92.5218 38.2105L92.5303 38.2254ZM17.6389 63.0497C17.2296 63.7136 16.9794 63.7945 16.2923 63.3561C11.9918 60.6047 7.65531 57.915 3.32303 55.2168C2.90953 54.9593 2.64658 54.7231 2.64658 54.1529C2.66566 43.8473 2.66142 33.5418 2.66142 23.0682L16.5553 31.7927C21.2077 34.7101 25.8496 37.6423 30.5233 40.5172C31.1934 40.9321 31.2485 41.1832 30.8329 41.8471C26.4094 48.9033 22.0114 55.9708 17.6389 63.0497ZM30.1034 74.1149C29.8643 74.4721 29.4983 74.7243 29.0802 74.82C28.6621 74.9157 28.2234 74.8477 27.8535 74.6298C27.6577 74.5254 27.4843 74.3832 27.3433 74.2114C27.2024 74.0396 27.0967 73.8415 27.0322 73.6285C26.9678 73.4156 26.9459 73.192 26.9679 72.9705C26.9898 72.749 27.0552 72.5341 27.1601 72.3381C27.6681 71.4104 28.2303 70.5137 28.8438 69.6526C29.3379 68.9525 30.1034 68.8568 30.8414 69.1355C31.5094 69.3866 31.9017 69.9399 31.9017 70.8932C31.8941 71.1133 31.8275 71.3273 31.7087 71.5124C31.1786 72.3785 30.6866 73.2701 30.1034 74.1064V74.1149ZM35.1079 76.7109C34.3976 77.8281 33.4709 78.1303 32.5463 77.577C31.5878 77.0025 31.4415 76.0087 32.1689 74.8256C33.0701 73.3595 33.9692 71.8933 34.9065 70.4485C35.3688 69.7356 36.041 69.4228 36.9062 69.6803C37.2521 69.7647 37.5598 69.9633 37.7797 70.2443C37.9997 70.5252 38.1192 70.8721 38.1191 71.2294C38.1217 71.6849 37.9855 72.1304 37.7289 72.5062C36.8468 73.8957 35.9922 75.3086 35.1079 76.7024V76.7109ZM39.5335 80.1518C39.3865 80.3761 39.18 80.5548 38.9372 80.6676C38.6944 80.7804 38.425 80.8228 38.1594 80.7902C36.8871 80.7774 36.0092 79.4666 36.6411 78.3282C37.6144 76.579 38.7023 74.8916 39.8219 73.2212C40.3202 72.4721 41.3423 72.37 42.0867 72.8445C42.831 73.319 43.1724 74.2596 42.7101 75.0533C41.6901 76.7684 40.6065 78.4601 39.5335 80.1433V80.1518ZM45.9821 80.3497C45.4599 81.3087 44.885 82.2379 44.2602 83.133C44.1186 83.3486 43.9207 83.5209 43.6881 83.6313C43.4555 83.7416 43.1971 83.7856 42.9412 83.7586C41.5968 83.7267 40.7974 82.435 41.406 81.2626C41.8959 80.3246 42.4574 79.4261 43.0854 78.575C43.6431 77.8217 44.4553 77.7451 45.2654 78.1622C45.4551 78.2579 45.6242 78.3903 45.7629 78.5516C45.9016 78.713 46.0073 78.9002 46.0739 79.1026C46.1404 79.305 46.1666 79.5185 46.1509 79.731C46.1351 79.9436 46.0778 80.1509 45.9821 80.3412V80.3497ZM65.8919 71.14C65.5893 71.3933 65.2077 71.532 64.8136 71.532C64.4196 71.532 64.038 71.3933 63.7353 71.14C62.3768 70.1215 61.0288 69.0909 59.6915 68.0482C59.0786 67.5694 58.4403 67.2268 57.8614 67.9801C57.2825 68.7334 57.7893 69.2568 58.4064 69.7292C59.6787 70.6825 60.9419 71.6472 62.1958 72.6232C63.2031 73.4063 63.4321 74.4298 62.8129 75.2789C62.1937 76.1279 61.1292 76.1853 60.1071 75.4214C58.8051 74.449 57.5094 73.468 56.2307 72.4657C55.6348 71.9976 55.0241 71.7444 54.4834 72.4296C53.8875 73.185 54.3752 73.7063 54.9987 74.183C56.2138 75.0937 57.414 76.0215 58.6206 76.9493C59.7826 77.8366 60.0753 78.8346 59.437 79.7326C58.7987 80.6306 57.6918 80.6433 56.4682 79.7326C55.2447 78.8218 53.9851 77.8643 52.7636 76.9025C52.1868 76.4471 51.6079 76.2747 51.099 76.9025C50.5349 77.5855 50.8869 78.1409 51.4955 78.6048C52.7891 79.5858 54.0847 80.5646 55.3719 81.5562C56.4322 82.3691 56.6569 83.4416 55.9869 84.2927C55.3507 85.0949 54.2904 85.1311 53.2662 84.3523C51.7415 83.2054 50.2423 82.0265 48.7112 80.8902C48.5404 80.7739 48.4035 80.6141 48.3148 80.427C48.2261 80.24 48.1887 80.0326 48.2066 79.8262C48.2066 77.8196 47.2481 76.5173 45.2887 75.9364C44.801 75.7917 44.7882 75.6257 44.8476 75.2257C45.2717 72.3019 43.6198 70.4102 40.7019 70.5442C40.2079 70.5655 40.1252 70.3314 39.981 70.0144C38.821 67.4502 36.1958 66.7161 33.9777 68.3908C33.5302 68.7291 33.4094 68.6163 33.0955 68.2801C31.643 66.7331 29.885 66.4756 28.0444 67.5779C27.6203 67.8333 27.37 67.7588 27.018 67.5353C24.8975 66.199 22.7918 64.8627 20.6564 63.5625C20.1475 63.254 20.0987 63.0369 20.421 62.5241C23.6301 57.4171 26.8166 52.2952 29.9805 47.1584C30.3134 46.62 30.5615 46.52 31.1171 46.8541C32.0142 47.4127 32.9773 47.8566 33.984 48.1755C35.4981 48.6139 36.9825 48.4437 38.4542 47.9627C39.6883 47.5584 40.9352 47.1967 42.1545 46.7541C43.113 46.4051 43.8001 46.8967 44.4702 47.4074C44.9558 47.7776 44.4193 48.0287 44.2369 48.2585C42.9646 49.814 41.6435 51.344 40.3499 52.891C39.1794 54.2933 38.8868 55.8701 39.6586 57.5299C40.4305 59.1896 41.828 59.9663 43.6389 60.0004C44.2232 60.0148 44.8042 59.9089 45.3462 59.6894C45.8881 59.4698 46.3795 59.1411 46.79 58.7236C47.4288 58.1643 48.0263 57.559 48.5777 56.9128C49.2499 56.0616 49.7461 56.0233 50.6473 56.7298C55.5394 60.56 60.4994 64.3052 65.436 68.078C65.8304 68.3801 66.2652 68.6653 66.4178 69.159C66.6638 69.8846 66.5663 70.6251 65.8919 71.1315V71.14ZM72.3024 63.571C70.8074 64.4222 69.3484 65.3479 67.9255 66.3182C67.3424 66.714 66.9967 66.6097 66.4857 66.216C61.2027 62.1475 55.9084 58.0959 50.6028 54.0614C49.5425 53.2549 49.2202 53.2868 48.2702 54.2359C47.2693 55.2338 46.2938 56.2574 45.2654 57.2149C44.4956 57.9406 43.5689 58.0236 42.6189 57.6044C41.7983 57.2426 41.3784 56.5936 41.3869 55.5935C41.3572 55.0743 41.6371 54.5976 42.0103 54.1529C43.4947 52.3952 44.9791 50.6524 46.4274 48.865C46.679 48.5501 46.9943 48.2924 47.3526 48.1089C47.7108 47.9255 48.1038 47.8206 48.5056 47.801C50.993 47.5563 53.4825 47.3052 55.9656 47.0052C56.7503 46.9094 57.3101 47.301 57.9208 47.6436C59.0786 48.2819 60.1113 49.2395 61.5724 49.0863C61.918 49.0501 62.3273 49.0607 62.5881 48.8735C63.6802 48.1096 64.0958 48.7777 64.6217 49.6353C67.2385 53.8911 69.9019 58.1363 72.5695 62.3709C72.911 62.9092 72.947 63.1965 72.3024 63.5625V63.571ZM89.8732 55.1423C85.4201 57.9228 80.9747 60.7147 76.5371 63.5178C76.0515 63.8243 75.8564 63.7306 75.5659 63.2646C71.0859 56.0297 66.5875 48.8125 62.0707 41.613C61.6614 40.9619 62.0707 40.8512 62.4376 40.6172L82.5828 27.9965L90.3906 23.1023C90.3906 33.5929 90.3906 43.9091 90.3906 54.2231C90.4034 54.4103 90.3612 54.5971 90.2692 54.7605C90.1773 54.9239 90.0396 55.0567 89.8732 55.1423Z" fill="#9F865F"/>
<path d="M72.1495 14.248C68.3707 9.80277 64.5749 5.37031 60.8173 0.90593C60.5942 0.615029 60.3038 0.383009 59.9713 0.229896C59.6388 0.0767831 59.2741 0.00717796 58.9088 0.0270982C54.778 0.0547612 50.6387 0.0398652 46.5121 0.0398652C42.3855 0.0398652 38.242 0.0526354 34.1154 0.0292282C33.7672 0.00824707 33.4191 0.0724188 33.1011 0.216233C32.7831 0.360047 32.5046 0.579204 32.2896 0.854862C28.5553 5.29158 24.7871 9.70275 21.0274 14.1161C20.1664 15.1268 20.1643 15.5162 21.1249 16.4206C24.1898 19.3061 27.2575 22.188 30.3281 25.0663C35.3495 29.7946 40.3682 34.5235 45.384 39.2532C46.3764 40.1852 46.6796 40.1788 47.6933 39.234C48.5415 38.4382 49.3897 37.6253 50.2379 36.8252C57.4775 30.0159 64.7177 23.2065 71.9587 16.3972C72.8514 15.563 72.8833 15.1077 72.1495 14.248ZM52.3585 2.11885H58.296C58.6777 2.11885 59.0212 2.11885 59.3563 2.42952C61.11 4.10632 61.1227 4.11483 59.8398 6.10657C58.5038 8.18129 57.1806 10.2645 55.8298 12.3286C55.6453 12.6116 55.5435 12.9819 55.1131 13.1691L47.9944 2.11672L52.3585 2.11885ZM46.8705 4.26166C48.9486 7.51738 51.0437 10.7625 53.2003 14.1161H39.8599C42.0081 10.771 44.0798 7.5493 46.1474 4.32763C46.3764 3.97227 46.5439 3.76585 46.8705 4.27017V4.26166ZM32.5631 3.73607C33.4665 2.45932 34.5331 2.00181 36.1129 2.07842C39.0202 2.22311 41.9381 2.11885 45.068 2.11885L37.9536 13.1734C37.4955 12.9606 37.3768 12.5201 37.152 12.1775C35.6146 9.81553 34.0921 7.44077 32.5504 5.08091C32.2408 4.61489 32.1645 4.30847 32.5631 3.74457V3.73607ZM30.6695 6.0257L35.8712 14.099H23.801L30.6695 6.0257ZM24.0958 16.2993H32.016C33.5004 16.2993 34.9848 16.3206 36.4692 16.2865C36.9612 16.2759 37.2135 16.4185 37.3874 16.893C39.5079 22.7093 41.6334 28.5214 43.7639 34.3292C43.7972 34.5017 43.8156 34.6769 43.819 34.8526L24.0958 16.2993ZM46.5354 35.8081C44.0883 29.137 41.7557 22.7767 39.3977 16.344H53.6711L46.5354 35.8081ZM49.4109 34.7164L49.2264 34.6249C50.1086 32.1885 50.9844 29.7478 51.8771 27.3134C53.124 23.9087 54.4027 20.5275 55.6156 17.1143C55.8446 16.4759 56.1224 16.2738 56.7968 16.2802C60.7707 16.3163 64.7446 16.2993 68.9814 16.2993L49.4109 34.7164ZM57.1742 14.131L62.3971 6.0257L69.2953 14.131H57.1742Z" fill="#979797"/>
</g>
<defs>
<clipPath id="clip0_168_1137">
<rect width="92" height="87" fill="white" transform="translate(0.530273 0.0270996)"/>
</clipPath>
</defs>
</svg>
