<svg width="92" height="97" viewBox="0 0 92 97" fill="none" xmlns="http://www.w3.org/2000/svg">
<g clip-path="url(#clip0_168_1120)">
<path d="M49.9457 96.3995H49.7942C49.3806 96.3769 48.9352 96.3655 48.3949 96.3655C48.0423 96.3655 47.6874 96.3655 47.3348 96.3655C46.9822 96.3655 46.6295 96.3655 46.2792 96.3655C45.9288 96.3655 45.5784 96.3655 45.2303 96.3655C44.8822 96.3655 44.5205 96.3655 44.1679 96.3655C43.6254 96.3655 43.18 96.3655 42.7664 96.3995H42.6307C41.9526 96.3995 41.5774 96.1006 41.3513 95.367C41.1524 94.7218 40.9444 94.0765 40.7365 93.4334C40.4336 92.4893 40.1194 91.5134 39.8323 90.5467C39.6537 89.9353 39.3802 89.5119 38.589 89.2969C36.294 88.6748 34.0901 87.7546 32.0336 86.5595C31.8176 86.4194 31.5675 86.3412 31.3103 86.3331C31.0604 86.3406 30.8164 86.4107 30.6005 86.5369C29.8568 86.9353 29.0905 87.3248 28.3513 87.7029C27.5489 88.1104 26.7192 88.5316 25.9123 88.9663C25.684 89.1032 25.4253 89.181 25.1596 89.1927C24.8273 89.1927 24.5153 89.0297 24.174 88.681C22.5781 87.044 20.9099 85.3753 19.2168 83.7202C18.6584 83.1768 18.5838 82.6697 18.9568 81.9655C19.3094 81.2999 19.6575 80.6183 19.9921 79.9595C20.4103 79.1399 20.842 78.2908 21.2873 77.4689C21.5835 76.921 21.6987 76.4138 21.2873 75.7165C20.1115 73.689 19.2128 71.5126 18.6154 69.2455C18.5583 68.9575 18.4186 68.6923 18.2135 68.4824C18.0084 68.2726 17.7467 68.127 17.4604 68.0636C16.6692 67.8372 15.878 67.5633 15.0959 67.3097C14.2595 67.038 13.396 66.755 12.5393 66.5014C11.7866 66.275 11.4995 65.8787 11.5085 65.075C11.5356 62.7361 11.5356 60.3746 11.5085 58.0561C11.5085 57.2795 11.8069 56.8697 12.5664 56.6455C13.3259 56.4214 14.1081 56.1678 14.8563 55.9233C15.6452 55.6651 16.4635 55.398 17.2727 55.1625C18.082 54.927 18.4866 54.5172 18.6742 53.7791C19.2522 51.5467 20.137 49.4055 21.3032 47.4168C21.4704 47.1736 21.5631 46.8868 21.5699 46.5916C21.5767 46.2964 21.4974 46.0057 21.3416 45.755C20.8895 44.9104 20.4374 44.0342 19.9966 43.1897C19.6575 42.5285 19.3071 41.8312 18.95 41.1746C18.5928 40.518 18.6652 39.9836 19.2325 39.4357C20.9573 37.767 22.6233 36.0984 24.1921 34.4727C24.5311 34.1218 24.8386 33.9587 25.1641 33.9587C25.4629 33.976 25.7524 34.0696 26.005 34.2304C26.8323 34.6968 27.6913 35.1361 28.5231 35.5527C29.1719 35.881 29.841 36.2184 30.4897 36.5693C30.7408 36.7124 31.0237 36.7903 31.3126 36.7957C31.6147 36.7882 31.9092 36.6991 32.1648 36.5376C34.1889 35.3598 36.3618 34.4596 38.6252 33.8614C38.9174 33.8049 39.1865 33.6637 39.3992 33.4551C39.6118 33.2466 39.7585 32.98 39.821 32.6885C40.0922 31.7036 40.4155 30.7119 40.7252 29.7451C40.9376 29.0953 41.1569 28.4229 41.3581 27.755C41.5729 27.0508 41.9685 26.7497 42.6828 26.7497C43.917 26.7497 45.1354 26.7633 46.3538 26.7633C47.5722 26.7633 48.7295 26.7633 49.8213 26.7451H49.8507C50.6238 26.7451 51.0307 27.0485 51.2522 27.7912C51.4624 28.4908 51.693 29.1972 51.9145 29.881C52.2174 30.807 52.5294 31.767 52.7939 32.718C52.847 32.9934 52.9807 33.2467 53.1779 33.4459C53.3751 33.645 53.627 33.781 53.9015 33.8365C56.1993 34.4407 58.4046 35.3547 60.4569 36.5534C60.7017 36.7054 60.9827 36.789 61.2707 36.7957C61.5745 36.785 61.8706 36.6978 62.1319 36.5421C62.8688 36.1459 63.6261 35.7542 64.3585 35.3761C65.1293 34.9776 65.9408 34.5655 66.7071 34.1444C66.922 34.0147 67.1662 33.9415 67.4169 33.9316C67.5955 33.9422 67.77 33.9899 67.9291 34.0718C68.0883 34.1536 68.2287 34.2678 68.3414 34.407C70.1611 36.2682 71.809 37.9187 73.38 39.447C73.9316 39.9836 74.0016 40.4908 73.6241 41.2017C73.2466 41.9127 72.9121 42.5602 72.5595 43.2395C72.13 44.075 71.6846 44.9376 71.2325 45.7776C71.0817 46.0106 71.0023 46.2827 71.0043 46.5604C71.0064 46.8381 71.0896 47.1091 71.2439 47.3399C72.4328 49.3589 73.3337 51.5348 73.9203 53.804C74.0989 54.5036 74.4921 54.8999 75.2358 55.124C75.9795 55.3482 76.6645 55.5768 77.3585 55.8033C78.2378 56.0931 79.1465 56.3919 80.0507 56.6523C80.7966 56.8787 81.0837 57.2704 81.0747 58.0833C81.0521 60.5738 81.0543 62.838 81.0747 64.9912C81.0747 65.8538 80.7831 66.2772 80.0009 66.5014C79.142 66.7459 78.283 67.0312 77.4534 67.3074C76.7119 67.5542 75.9456 67.8101 75.1929 68.0342C74.4741 68.2448 74.1101 68.6025 73.9429 69.2659C73.3533 71.536 72.4551 73.7141 71.2733 75.7391C71.1089 75.9847 71.0197 76.2729 71.0165 76.5685C71.0133 76.8641 71.0962 77.1542 71.2552 77.4033C71.6666 78.155 72.0622 78.9316 72.4464 79.6833C72.8307 80.435 73.1992 81.1595 73.5948 81.8885C73.9904 82.6176 73.9361 83.1587 73.3461 83.7316C71.6349 85.3912 69.9938 87.0327 68.468 88.6153C68.1086 88.9889 67.7718 89.1633 67.4101 89.1633C67.1006 89.1482 66.7998 89.0556 66.5353 88.8938C65.7577 88.4659 64.9529 88.0584 64.1753 87.6644C63.4746 87.3067 62.749 86.9399 62.0483 86.5595C61.8104 86.4182 61.5403 86.3403 61.2639 86.3331C60.9979 86.3394 60.7386 86.4177 60.5134 86.5595C58.4225 87.7692 56.181 88.6965 53.8472 89.3172C53.5923 89.3683 53.3579 89.4931 53.1731 89.6762C52.9883 89.8593 52.8612 90.0927 52.8074 90.3474C52.5542 91.2123 52.2694 92.0863 51.9959 92.9308C51.7473 93.6984 51.4896 94.4908 51.2545 95.2765C51.0194 96.0621 50.6577 96.3995 49.9457 96.3995ZM46.3108 94.5746C47.0997 94.5746 47.8932 94.5746 48.6685 94.604H48.7408C49.3963 94.604 49.7377 94.3436 49.923 93.6983C50.1355 92.9625 50.3751 92.2199 50.6147 91.4999C50.8724 90.7142 51.1392 89.8991 51.3698 89.0863C51.4342 88.7593 51.5977 88.4603 51.838 88.2297C52.0782 87.9992 52.3836 87.8484 52.7125 87.798C55.3973 87.1546 57.9642 86.0918 60.319 84.6485C60.6002 84.4629 60.9272 84.3587 61.2639 84.3474C61.5556 84.3524 61.8416 84.4302 62.0957 84.5738C62.7739 84.9361 63.452 85.2916 64.1301 85.6334C64.8716 86.0138 65.6379 86.4101 66.3906 86.8131C66.6162 86.9561 66.8746 87.0387 67.1411 87.0531C67.3102 87.0448 67.4755 87.0001 67.6257 86.9219C67.7759 86.8438 67.9074 86.734 68.0114 86.6002C69.0241 85.5021 70.1159 84.4063 71.3501 83.2493C71.922 82.7127 71.8497 82.2508 71.5761 81.721C71.2258 81.0689 70.8867 80.3965 70.5567 79.7467C70.1498 78.9497 69.7316 78.1233 69.2931 77.3263C68.9676 76.7376 68.9811 76.2735 69.3406 75.6689C70.8149 73.2423 71.9017 70.5999 72.5617 67.8372C72.7087 67.2078 73.0613 66.8568 73.744 66.6621C74.5849 66.4221 75.428 66.1459 76.2441 65.881C76.9222 65.6546 77.6432 65.4282 78.3463 65.2017C78.986 65.0116 79.3771 64.7285 79.3454 63.8999C79.2867 62.41 79.2844 60.8161 79.3454 59.1678C79.3703 58.4885 79.1194 58.1376 78.4412 57.9361C77.6501 57.6984 76.8589 57.4425 76.0723 57.198C75.2856 56.9535 74.5102 56.7044 73.7259 56.4667C73.0658 56.2651 72.7132 55.9278 72.5956 55.3731C71.9218 52.5364 70.8074 49.8234 69.2931 47.3331C69.1455 47.1195 69.064 46.867 69.0588 46.6073C69.0535 46.3476 69.1248 46.0921 69.2637 45.8727C69.6525 45.155 70.0277 44.4168 70.3939 43.7036C70.7827 42.9406 71.1851 42.1504 71.601 41.3874C71.9333 40.7738 71.8655 40.3482 71.3591 39.8659C70.1701 38.7338 69.0173 37.5814 67.9368 36.4334C67.844 36.3167 67.7275 36.221 67.595 36.1527C67.4625 36.0844 67.317 36.0451 67.1682 36.0372C66.9399 36.0489 66.7184 36.1183 66.524 36.2387C65.8074 36.6236 65.0705 37.0063 64.3585 37.3708C63.5989 37.7625 62.8146 38.1678 62.0505 38.5821C61.8236 38.7201 61.5653 38.798 61.3 38.8085C61.0118 38.7983 60.7322 38.7073 60.493 38.5459C58.0391 37.0503 55.3709 35.9401 52.5814 35.2538C51.971 35.0999 51.6614 34.801 51.4737 34.1557C51.2477 33.3497 50.9719 32.5414 50.7119 31.7602C50.452 30.9791 50.2056 30.2206 49.975 29.444C49.8032 28.8576 49.5229 28.4659 48.7566 28.4659H48.664C47.8819 28.4931 47.0997 28.5089 46.3402 28.5089C45.5807 28.5089 44.7985 28.4931 44.0526 28.4636H43.9509C43.2885 28.4636 42.9359 28.7421 42.728 29.4259C42.5019 30.198 42.242 30.9814 41.9956 31.7376C41.7288 32.5572 41.4508 33.404 41.2021 34.244C41.1442 34.4983 41.0124 34.7297 40.8233 34.909C40.6343 35.0883 40.3964 35.2075 40.1397 35.2516C37.351 35.9383 34.6832 37.0469 32.2281 38.5391C31.9902 38.6991 31.712 38.7886 31.4256 38.7972C31.1248 38.7859 30.832 38.697 30.5756 38.5391C29.529 37.9618 28.4485 37.407 27.411 36.8795C27.0041 36.6712 26.5949 36.4629 26.1903 36.2523C26.0524 36.1821 25.9123 36.1165 25.7631 36.044L25.4036 35.8697L25.146 36.1097C25.0307 36.2116 24.9199 36.318 24.8046 36.4289C24.4588 36.7731 24.1265 37.1217 23.7739 37.4682C22.994 38.2606 22.1915 39.0802 21.3597 39.8455C20.7539 40.4048 20.8307 40.8802 21.1517 41.4667C21.4727 42.0531 21.8117 42.7142 22.1237 43.3278C22.4967 44.0614 22.8833 44.8176 23.2947 45.5489C23.7061 46.2802 23.7106 46.9074 23.2675 47.6161C21.8423 49.9406 20.7947 52.4771 20.1639 55.1308C20.1104 55.4608 19.9589 55.7669 19.729 56.0093C19.4991 56.2516 19.2017 56.4189 18.8754 56.4893C18.0051 56.7451 17.1303 57.0236 16.2827 57.2931C15.6045 57.5059 14.9399 57.7187 14.264 57.9248C13.6921 58.0968 13.3169 58.3776 13.344 59.1451C13.4028 60.8025 13.3802 62.4508 13.344 63.9972C13.3327 64.6448 13.5701 64.955 14.2188 65.1429C15.0936 65.3919 15.9775 65.684 16.8297 65.967C17.5462 66.1934 18.2899 66.4493 19.0269 66.6689C19.2982 66.7312 19.5453 66.8716 19.7381 67.0727C19.9309 67.2738 20.0608 67.5269 20.1119 67.801C20.7744 70.5628 21.8627 73.2043 23.3376 75.6304C23.7083 76.2463 23.7106 76.7399 23.3512 77.3874C22.9194 78.164 22.5102 78.9723 22.1146 79.7444C21.7891 80.3806 21.4546 81.0395 21.111 81.678C20.7674 82.3165 20.8285 82.7919 21.3755 83.2991C22.5351 84.3746 23.6201 85.4953 24.721 86.6433C24.8169 86.7641 24.9375 86.863 25.0748 86.9333C25.212 87.0036 25.3627 87.0437 25.5167 87.0508C25.743 87.0414 25.9631 86.9743 26.1564 86.8561C26.9295 86.435 27.7387 86.0274 28.5028 85.6357C29.1809 85.2916 29.859 84.9384 30.5372 84.5761C30.8066 84.4178 31.1112 84.3291 31.4233 84.318C31.7049 84.3222 31.9795 84.4071 32.2145 84.5625C34.6673 86.0608 37.3358 87.1719 40.1262 87.8568C40.7229 88.0108 41.0303 88.321 41.2179 88.964C41.444 89.7451 41.7085 90.5308 41.9594 91.2893C42.2103 92.0478 42.4816 92.8742 42.7144 93.6757C42.902 94.3165 43.2456 94.5814 43.8989 94.5814H43.9667C44.7307 94.5836 45.5309 94.5746 46.3108 94.5746Z" fill="#979797"/>
<path d="M52.9254 22.407C52.6025 22.3729 52.2925 22.2619 52.0212 22.0833C51.4967 21.7934 50.9723 21.5082 50.4388 21.2206C49.338 20.6251 48.1987 20.007 47.1069 19.3595C46.8709 19.2058 46.5971 19.1204 46.3157 19.1127C46.0156 19.1246 45.7242 19.2177 45.4726 19.3821C44.3423 20.0342 43.1646 20.6704 42.0321 21.284C41.58 21.5353 41.1098 21.7844 40.651 22.038C40.5945 22.0674 40.5402 22.0991 40.486 22.1308C40.2861 22.2744 40.0524 22.3634 39.8078 22.3889H39.7468C39.6169 22.4002 39.4862 22.3819 39.3644 22.3352C39.2426 22.2885 39.133 22.2148 39.0438 22.1195C38.8584 21.8931 38.8178 21.5285 38.8969 21.0621C39.236 19.2961 39.575 17.4689 39.9751 15.6553C40.1672 14.7497 39.9751 14.161 39.2969 13.5927C38.3928 12.8319 37.536 12.0078 36.6997 11.204C36.2476 10.7761 35.7955 10.3346 35.3299 9.90891C34.8642 9.48325 34.6743 9.20023 34.8099 8.77684C34.9456 8.35344 35.2779 8.14514 35.9402 8.07495C37.0071 7.96174 38.0876 7.82363 39.1319 7.69231C39.9547 7.58816 40.807 7.47948 41.6433 7.38438C41.9234 7.37085 42.1933 7.27493 42.4192 7.10861C42.6452 6.9423 42.8172 6.71297 42.9137 6.44929C43.5466 5.01835 44.2474 3.50589 45.1742 1.56325C45.2171 1.47721 45.2556 1.38891 45.294 1.29835C45.5404 0.736836 45.719 0.392685 46.2773 0.392685H46.3135C46.8876 0.408534 47.0707 0.759477 47.3194 1.33004C47.3601 1.42287 47.4008 1.5157 47.4437 1.60627C48.1897 3.15495 48.9605 4.75571 49.6748 6.38816C49.7733 6.67016 49.9534 6.91639 50.1921 7.09544C50.4308 7.27449 50.7174 7.37823 51.0153 7.39344C51.9375 7.49533 52.8756 7.61986 53.7821 7.72401C54.7451 7.84401 55.7374 7.96853 56.7207 8.07268C57.322 8.13608 57.6249 8.32401 57.7854 8.7225C57.9459 9.12099 57.8103 9.42438 57.3333 9.85457C56.8993 10.2576 56.4668 10.6621 56.0358 11.0682C55.0841 11.9602 54.0986 12.8795 53.1153 13.7851C52.679 14.1814 52.4235 14.598 52.5908 15.3519C52.8395 16.484 53.0429 17.6161 53.2554 18.7323C53.3842 19.4365 53.5199 20.1633 53.66 20.8765C53.7843 21.4946 53.8296 21.8953 53.434 22.2078C53.2886 22.3314 53.1047 22.4002 52.9141 22.4025L52.9254 22.407ZM46.3135 17.1134C46.6465 17.1237 46.9706 17.2239 47.2516 17.4033C48.1332 17.9172 49.0261 18.4063 49.9642 18.9248C50.3733 19.1512 50.7915 19.3776 51.2232 19.6176L51.6392 19.844L51.5556 19.3753C51.4674 18.8953 51.3928 18.4289 51.3295 17.9738C51.187 16.9745 50.9908 15.9837 50.7418 15.0055C50.5157 14.1542 50.692 13.604 51.4199 12.9678C52.1478 12.3316 52.8643 11.6523 53.6126 10.93C53.9449 10.6131 54.2907 10.2893 54.6388 9.9542L54.9892 9.62363L54.5122 9.56476L53.0113 9.37005C51.9263 9.2274 50.9023 9.09382 49.8896 9.00099C49.1956 8.93533 48.8 8.66136 48.5333 8.04778C48.1106 7.09004 47.6562 6.13457 47.177 5.12476C46.9668 4.67193 46.7498 4.2191 46.526 3.75042L46.3203 3.31344L46.1168 3.75042C45.8908 4.20325 45.6896 4.65608 45.4862 5.08174C45.0341 6.03269 44.6091 6.92929 44.2225 7.83268C43.8767 8.63646 43.4088 8.96476 42.5566 9.0191C41.5778 9.07797 40.6036 9.22514 39.5728 9.38137C39.1207 9.44929 38.6392 9.52174 38.1441 9.58967L37.6717 9.65306L38.0198 9.9791C38.3883 10.3233 38.7409 10.6583 39.0822 10.9799C39.8508 11.7044 40.5742 12.3882 41.3133 13.047C41.9417 13.6085 42.1113 14.1293 41.9123 14.9082C41.6614 15.8953 41.4919 16.8938 41.3133 17.9512C41.2342 18.404 41.1551 18.8795 41.0669 19.3617L40.981 19.8304L41.3969 19.604L42.6651 18.9112C43.6145 18.3972 44.5119 17.9104 45.389 17.3897C45.667 17.2165 45.9862 17.1211 46.3135 17.1134Z" fill="#9F865F"/>
<path d="M13.3716 38.8289C12.9557 38.8289 12.6935 38.4961 12.4109 38.0636C12.0311 37.4976 11.6446 36.9316 11.2581 36.3723C10.5935 35.4033 9.9018 34.4025 9.2666 33.3972C9.13093 33.1449 8.92606 32.9366 8.67615 32.797C8.42624 32.6574 8.14171 32.5923 7.85607 32.6093C7.80182 32.6093 7.74304 32.6093 7.68427 32.6093C6.46587 32.6727 5.22488 32.7067 4.02683 32.7384C3.36677 32.7565 2.70898 32.7723 2.05118 32.795H1.82513C1.37304 32.795 1.08368 32.7248 0.909626 32.3557C0.683579 31.8893 0.868925 31.5066 1.23512 31.0425C1.68722 30.4674 2.13931 29.8893 2.59141 29.3082C3.28085 28.4183 3.99514 27.4968 4.71171 26.6048C4.91534 26.389 5.04964 26.117 5.09719 25.8239C5.14475 25.5309 5.10341 25.2302 4.97848 24.961C4.56934 23.9059 4.18729 22.8191 3.81657 21.7663C3.57244 21.0734 3.3283 20.3783 3.07513 19.6878C2.86716 19.1195 2.75642 18.7187 3.09775 18.3293C3.16885 18.2405 3.259 18.169 3.36155 18.12C3.46409 18.071 3.57641 18.0458 3.69002 18.0463C3.97307 18.0688 4.25037 18.1384 4.51055 18.2523C5.04402 18.4448 5.57978 18.6304 6.11325 18.8184C7.28644 19.2282 8.49804 19.6516 9.66445 20.1248C9.89198 20.2221 10.1359 20.2751 10.3833 20.281C10.8049 20.2661 11.2067 20.0978 11.5135 19.8078C12.3295 19.1489 13.1727 18.4946 13.9865 17.8629C14.6126 17.3783 15.2365 16.8938 15.8559 16.4002C16.0992 16.1667 16.4118 16.0188 16.7465 15.9791C16.8866 15.981 17.024 16.0176 17.1466 16.0855C17.558 16.2961 17.6326 16.681 17.6213 17.2312C17.6055 17.9104 17.6213 18.5897 17.6213 19.321C17.6213 19.6131 17.6213 19.9119 17.6213 20.2267C16.7058 22.7421 17.5874 24.6123 20.318 25.9436C20.9115 26.2576 21.4765 26.6227 22.0066 27.035C22.2711 27.2274 22.5424 27.4266 22.8181 27.61C23.3109 27.9406 23.6274 28.1965 23.5528 28.7308C23.4782 29.2651 23.1007 29.4236 22.4768 29.598L22.4361 29.6116C21.7399 29.8085 21.0482 30.0146 20.3542 30.2184C19.2737 30.5376 18.157 30.8682 17.0517 31.1693C16.7786 31.2207 16.5278 31.3549 16.3333 31.5537C16.1389 31.7526 16.0101 32.0064 15.9644 32.281C15.6434 33.4878 15.2863 34.7082 14.9359 35.89C14.7505 36.5195 14.5651 37.1489 14.3843 37.7806C14.217 38.3625 14.0158 38.7406 13.5298 38.8176C13.4827 38.8246 13.4351 38.8283 13.3874 38.8289H13.3716ZM8.76478 30.8546C9.05543 30.8363 9.34527 30.901 9.6006 31.0413C9.85592 31.1816 10.0662 31.3917 10.2069 31.647C10.7721 32.5278 11.3621 33.3859 11.986 34.2961L12.7997 35.4848L13.0687 35.8833L13.2043 35.4304C13.34 34.9595 13.4779 34.5067 13.6112 34.0719C13.9119 33.0757 14.1967 32.1338 14.4182 31.1761C14.6194 30.3112 15.0602 29.8674 15.9395 29.65C16.9002 29.41 17.8428 29.1316 18.8419 28.835L20.187 28.441L20.6503 28.3074L20.2525 28.0357L19.0748 27.2251C18.1909 26.6161 17.3568 26.0387 16.5001 25.4931C15.7858 25.0402 15.5213 24.5331 15.5959 23.7497C15.6773 22.7489 15.7157 21.7391 15.7542 20.6682C15.7722 20.195 15.7903 19.7082 15.8129 19.1987L15.8333 18.7097L15.449 19.0108L14.2487 19.9391C13.3626 20.6184 12.524 21.2704 11.7079 21.9248C11.4372 22.1697 11.0891 22.3116 10.7246 22.3255C10.4989 22.3213 10.2762 22.2729 10.0691 22.1829C9.09934 21.7866 8.10697 21.438 7.05585 21.0689C6.60375 20.9104 6.13358 20.7474 5.6521 20.5731L5.20001 20.4123L5.36049 20.8651C5.52777 21.3361 5.68376 21.7912 5.83748 22.2236C6.18785 23.238 6.51561 24.198 6.90668 25.1331C7.21184 25.8734 7.13271 26.4327 6.60375 27.0621C5.95952 27.8433 5.35595 28.6334 4.72076 29.4667L3.91607 30.5172L3.63125 30.8817H4.0946C4.57382 30.8817 5.044 30.8817 5.50288 30.8817H6.8117C7.52149 30.8817 8.09791 30.8704 8.62008 30.8478L8.76478 30.8546Z" fill="#9F865F"/>
<path d="M79.2509 38.8221C79.211 38.8254 79.171 38.8254 79.1312 38.8221C78.6926 38.7633 78.453 38.4802 78.2631 37.8123C78.0551 37.0712 77.8442 36.3323 77.6302 35.5957C77.3408 34.5882 77.0402 33.5467 76.7599 32.5187C76.5746 31.8395 76.2671 31.33 75.3855 31.1195C74.1287 30.8161 72.8651 30.4402 71.6444 30.0644C71.1366 29.9134 70.6265 29.7625 70.1141 29.6116C69.5218 29.4372 69.1556 29.2946 69.0788 28.7761C69.0019 28.2576 69.2596 27.9972 69.7886 27.644C70.3175 27.2908 70.7854 26.9648 71.2827 26.6274C72.2525 25.9617 73.2562 25.2689 74.2689 24.6395C75.0239 24.1685 75.3041 23.6048 75.2363 22.6968C75.1504 21.5036 75.1097 20.2855 75.0713 19.1059C75.0509 18.4991 75.0329 17.8923 75.0058 17.2946C74.9832 16.7489 75.051 16.364 75.4579 16.1353C75.5845 16.0622 75.7276 16.0225 75.8738 16.0199C76.2004 16.0589 76.5057 16.2027 76.7441 16.4297C77.3092 16.8734 77.8758 17.3149 78.444 17.7542C79.3482 18.4538 80.2772 19.1761 81.1814 19.9006C81.4698 20.1636 81.8427 20.3146 82.2325 20.3263C82.4728 20.3219 82.7099 20.2712 82.931 20.1768C84.1403 19.6923 85.3904 19.2508 86.5997 18.8183C87.0948 18.644 87.5921 18.4674 88.0849 18.2885L88.1617 18.2614C88.407 18.1542 88.6682 18.0884 88.9348 18.0666C89.0437 18.0664 89.1512 18.0907 89.2494 18.1377C89.3477 18.1848 89.434 18.2533 89.5022 18.3383C89.8729 18.7482 89.7486 19.1534 89.518 19.7829C89.2875 20.4123 89.0659 21.0123 88.8579 21.6236C88.4804 22.6855 88.0894 23.7859 87.6689 24.8523C87.5247 25.1541 87.4756 25.4927 87.5281 25.8231C87.5806 26.1535 87.7322 26.4601 87.9628 26.7021C88.659 27.558 89.3462 28.4478 90.0108 29.3082C90.4629 29.89 90.915 30.4719 91.3671 31.0493C91.7559 31.5406 91.9277 31.8961 91.7197 32.3557C91.5434 32.7451 91.2473 32.8199 90.7636 32.8199H90.5556H90.4833C90.0967 32.8199 89.7124 32.8199 89.3056 32.8199H87.3547C86.8408 32.5987 86.2887 32.4803 85.7295 32.4712C83.6544 32.4712 82.4405 34.3912 81.7103 35.838C81.426 36.3596 81.1017 36.8585 80.7406 37.33C80.5462 37.5995 80.345 37.8757 80.1619 38.1565C79.8906 38.5436 79.6307 38.8221 79.2509 38.8221ZM76.8074 19.1716C76.83 19.6968 76.8503 20.195 76.8707 20.6795C76.9136 21.7731 76.9543 22.8055 77.0266 23.8244C77.0786 24.5376 76.8435 24.9927 76.2196 25.3957C75.3335 25.9663 74.4745 26.5617 73.5636 27.1934L72.3791 28.0108L71.9858 28.2802L72.4379 28.4161C72.9035 28.5519 73.3601 28.6923 73.8055 28.8282C74.8543 29.1497 75.8399 29.4531 76.8594 29.6999C77.5782 29.8765 77.9534 30.2614 78.1591 31.0289C78.4214 32.0116 78.7039 32.9919 79.0046 34.0289C79.1334 34.4817 79.269 34.9346 79.4047 35.4259L79.538 35.8787L79.8093 35.478C80.0851 35.0704 80.3586 34.6765 80.6253 34.2893C81.2492 33.3836 81.8369 32.53 82.3953 31.647C82.5415 31.3805 82.7611 31.1617 83.028 31.0167C83.295 30.8718 83.5979 30.8069 83.9007 30.8297C83.9572 30.8297 84.016 30.8297 84.0748 30.8297C84.5924 30.8546 85.1553 30.8659 85.8425 30.8659C86.2652 30.8659 86.6924 30.8659 87.1287 30.8659C87.565 30.8659 88.0487 30.8659 88.5279 30.8659H88.9913L88.7065 30.5014C88.4352 30.1504 88.1708 29.8063 87.9108 29.4644C87.3005 28.6629 86.7241 27.9066 86.1024 27.1685C85.4808 26.4304 85.3949 25.8553 85.7385 25.0425C86.1318 24.1165 86.4506 23.1723 86.7896 22.1716C86.9343 21.7391 87.0835 21.2999 87.2417 20.8516L87.3999 20.3987L86.9478 20.5595C86.4957 20.7248 86.0437 20.8742 85.6187 21.0123C84.6932 21.3101 83.7833 21.6547 82.8926 22.0448C82.6107 22.1838 82.3024 22.261 81.9884 22.2712C81.5363 22.2712 81.1 22.0787 80.5869 21.6417C79.8635 21.0282 79.104 20.4508 78.3015 19.8304C77.9398 19.5565 77.5669 19.2734 77.1826 18.9746L76.7961 18.6734L76.8074 19.1716Z" fill="#9F865F"/>
<path d="M45.9247 80.0682C36.0826 80.0297 27.789 71.5436 27.8116 61.5383C27.8337 56.6432 29.7896 51.9559 33.252 48.5011C36.7144 45.0463 41.4015 43.1049 46.2887 43.1014H46.352C56.5581 43.1353 64.8336 51.447 64.8042 61.6266C64.7749 71.9648 56.5151 80.0659 46.0016 80.0659L45.9247 80.0682ZM37.6831 68.2606C36.1346 68.2606 34.9524 68.8968 33.8402 70.3255C33.0988 71.2878 33.1417 72.0395 33.9849 72.9157C37.4299 76.4908 41.553 78.3021 46.239 78.3021C46.8403 78.3021 47.4596 78.2727 48.0812 78.2116C52.3558 77.8017 56.0314 75.8682 59.0061 72.4606L59.0355 72.4267C59.2977 72.1278 59.6233 71.7474 59.3497 71.1383C58.9762 70.3086 58.3769 69.601 57.6205 69.0965C56.8641 68.5919 55.9813 68.3109 55.0729 68.2855H51.4041H46.2774C45.4297 68.2855 44.5956 68.2855 43.7637 68.2855C42.9319 68.2855 42.1023 68.2855 41.2772 68.2855C39.9412 68.2855 38.8472 68.2719 37.8345 68.2448L37.6831 68.2606ZM54.2252 66.4493C57.096 66.4493 59.0852 67.4636 60.4867 69.6372L60.6857 69.9474L60.871 69.6282C64.7907 62.8765 63.1157 53.8765 56.974 48.6961C53.987 46.2114 50.221 44.8613 46.3384 44.8832C42.3118 44.8593 38.4131 46.2993 35.3661 48.9361C29.3735 54.1799 27.8206 63.0825 31.7493 69.6463L31.9166 69.927L32.2556 69.4991C32.3506 69.3791 32.441 69.2727 32.5292 69.1504C33.942 67.3165 35.6509 66.4629 37.9114 66.4629H38.0673C41.1348 66.5172 43.8451 66.5444 46.352 66.5444C49.0352 66.5444 51.4991 66.515 53.8861 66.4538L54.2252 66.4493Z" fill="#9F865F"/>
<path d="M46.2725 63.4923C45.4408 63.4919 44.6177 63.3246 43.8517 63.0003C43.0857 62.6759 42.3923 62.2012 41.8125 61.604C40.6168 60.3944 39.948 58.7598 39.9522 57.0576C39.9515 55.3715 40.6148 53.7532 41.7981 52.5539C42.9814 51.3547 44.5892 50.6714 46.2725 50.6523H46.3109C47.1486 50.6497 47.9785 50.8143 48.7521 51.1366C49.5256 51.4588 50.2273 51.9323 50.816 52.5293C51.4098 53.1269 51.8797 53.8363 52.1986 54.6166C52.5175 55.3968 52.6791 56.2326 52.6741 57.0757C52.6816 57.9124 52.5241 58.7424 52.2107 59.5181C51.8974 60.2937 51.4343 60.9998 50.848 61.5959C50.2617 62.192 49.5637 62.6663 48.7941 62.9918C48.0244 63.3172 47.1982 63.4873 46.3628 63.4923H46.2725ZM46.329 52.4546C45.7175 52.4483 45.1109 52.5637 44.5443 52.7942C43.9778 53.0247 43.4625 53.3656 43.0286 53.7972C42.6018 54.2306 42.2651 54.7446 42.0381 55.3093C41.8111 55.874 41.6983 56.4783 41.7063 57.087C41.7109 58.3039 42.1916 59.4704 43.0454 60.3361C43.8991 61.2018 45.0577 61.6977 46.2725 61.7172H46.3131C46.9182 61.7185 47.5175 61.5991 48.076 61.3658C48.6345 61.1326 49.1411 60.7902 49.566 60.3587C49.9997 59.9259 50.3429 59.4108 50.5758 58.8437C50.8087 58.2765 50.9265 57.6686 50.9223 57.0553C50.9253 56.4525 50.8091 55.855 50.5804 55.2973C50.3518 54.7395 50.0153 54.2327 49.5902 53.8059C49.1651 53.379 48.6599 53.0407 48.1037 52.8103C47.5475 52.58 46.9512 52.4621 46.3493 52.4636L46.329 52.4546Z" fill="#9F865F"/>
</g>
<defs>
<clipPath id="clip0_168_1120">
<rect width="91" height="96" fill="white" transform="translate(0.814453 0.397217)"/>
</clipPath>
</defs>
</svg>
