<svg width="173" height="174" viewBox="0 0 173 174" fill="none" xmlns="http://www.w3.org/2000/svg">
<circle cx="86.0457" cy="86.9124" r="54.1229" stroke="#3D50DF" stroke-width="4"/>
<path d="M64.1704 108.579L107.92 65.2458" stroke="#3D50DF" stroke-width="10" stroke-linecap="round" stroke-linejoin="round"/>
<path d="M64.1704 65.2458H107.92V108.579" stroke="#3D50DF" stroke-width="10" stroke-linecap="round" stroke-linejoin="round"/>
<path d="M80.6047 161.099L79.1694 173.379L74.7922 172.868C73.8408 172.756 73.0705 172.5 72.4812 172.099C71.888 171.698 71.4693 171.189 71.2252 170.573C70.9807 169.961 70.9026 169.277 70.9909 168.521C71.0788 167.77 71.314 167.127 71.6966 166.592C72.0747 166.061 72.5981 165.674 73.2666 165.432C73.9311 165.19 74.739 165.124 75.6904 165.235L79.0063 165.623L78.8198 167.218L75.6719 166.85C75.0723 166.78 74.5745 166.809 74.1787 166.937C73.7788 167.064 73.4718 167.282 73.2576 167.589C73.0434 167.896 72.9095 168.28 72.8557 168.739C72.8015 169.203 72.8445 169.615 72.9847 169.976C73.1208 170.336 73.3683 170.629 73.727 170.853C74.0813 171.081 74.5642 171.23 75.1758 171.302L77.5023 171.574L78.7519 160.883L80.6047 161.099ZM73.8951 165.931L71.5086 160.036L73.6193 160.283L75.9457 166.171L73.8951 165.931Z" fill="#3D50DF"/>
<path d="M63.1128 157.77L64.9735 158.448L56.564 168.544L54.5388 167.807L54.5865 154.667L56.4472 155.344L56.2712 166.048L56.362 166.081L63.1128 157.77ZM61.1448 162.207L55.1089 160.01L55.6458 158.535L61.6817 160.732L61.1448 162.207Z" fill="#3D50DF"/>
<path d="M47.3965 150.693L49.0509 151.781L38.5397 159.666L36.739 158.482L39.8157 145.707L41.47 146.795L38.8305 157.169L38.9112 157.222L47.3965 150.693ZM44.4586 154.556L39.092 151.026L39.9545 149.715L45.3211 153.244L44.4586 154.556Z" fill="#3D50DF"/>
<path d="M33.945 140.401L24.952 148.886L23.6719 147.529L31.4968 140.146L27.6523 136.071L28.8204 134.969L33.945 140.401Z" fill="#3D50DF"/>
<path d="M10.1268 129.461L20.834 123.279L21.7667 124.894L11.0595 131.076L10.1268 129.461Z" fill="#3D50DF"/>
<path d="M4.9452 105.516L5.4854 107.321C5.12063 107.506 4.82001 107.736 4.58354 108.013C4.34708 108.29 4.16766 108.595 4.04526 108.93C3.92287 109.265 3.86042 109.618 3.85789 109.988C3.85422 110.355 3.90894 110.727 4.02206 111.105C4.22636 111.787 4.58089 112.347 5.08563 112.784C5.58922 113.217 6.21934 113.491 6.97598 113.605C7.73148 113.715 8.58732 113.626 9.54349 113.34C10.5074 113.052 11.2747 112.654 11.8455 112.147C12.4152 111.636 12.7889 111.06 12.9666 110.419C13.1442 109.777 13.1321 109.119 12.9301 108.444C12.8181 108.07 12.6618 107.731 12.4612 107.425C12.2555 107.117 12.0114 106.856 11.729 106.643C11.4465 106.429 11.1324 106.271 10.7867 106.168C10.436 106.063 10.0607 106.031 9.66096 106.071L9.12654 104.265C9.73759 104.187 10.3295 104.213 10.9023 104.344C11.47 104.473 11.9959 104.699 12.4799 105.025C12.9588 105.348 13.3772 105.756 13.7351 106.25C14.0929 106.744 14.3694 107.316 14.5645 107.968C14.8715 108.993 14.9022 109.98 14.6564 110.927C14.4069 111.876 13.8964 112.718 13.125 113.453C12.3525 114.184 11.3358 114.738 10.075 115.116C8.81042 115.494 7.65582 115.588 6.61126 115.396C5.56284 115.206 4.67568 114.783 3.94979 114.126C3.22005 113.471 2.70224 112.632 2.39635 111.611C2.20821 110.982 2.12336 110.369 2.14182 109.771C2.15527 109.171 2.27028 108.6 2.48684 108.061C2.69955 107.523 3.01188 107.036 3.42383 106.602C3.83193 106.169 4.33905 105.807 4.9452 105.516Z" fill="#3D50DF"/>
<path d="M12.6027 74.1482C12.5454 74.4732 12.3812 74.7324 12.1101 74.9257C11.835 75.1183 11.533 75.1856 11.204 75.1276C10.879 75.0703 10.6222 74.9044 10.4335 74.6301C10.2409 74.355 10.1733 74.0549 10.2306 73.7299C10.2879 73.4049 10.4541 73.1461 10.7292 72.9535C11.0003 72.7602 11.2983 72.6922 11.6233 72.7495C11.8413 72.7879 12.0317 72.8787 12.1945 73.0218C12.3539 73.1603 12.4715 73.3282 12.547 73.5254C12.6226 73.7226 12.6412 73.9302 12.6027 74.1482Z" fill="#3D50DF"/>
<path d="M23.8258 45.6873L13.9086 38.3042L16.5403 34.7693C17.1123 34.001 17.7193 33.462 18.3613 33.1522C19.0058 32.8392 19.6558 32.7311 20.3113 32.8277C20.9637 32.922 21.5949 33.1963 22.205 33.6505C22.812 34.1023 23.2513 34.6276 23.5231 35.2263C23.794 35.8194 23.8671 36.4659 23.7424 37.1658C23.6202 37.8625 23.273 38.595 22.701 39.3633L20.7074 42.0412L19.4194 41.0822L21.312 38.54C21.6725 38.0558 21.8963 37.6102 21.9834 37.2034C22.0729 36.7934 22.0382 36.4188 21.8792 36.0797C21.7202 35.7406 21.4551 35.4329 21.0839 35.1565C20.7094 34.8777 20.3309 34.7088 19.9483 34.6498C19.5682 34.5875 19.1913 34.6557 18.8177 34.8542C18.4433 35.0471 18.0723 35.3905 17.7046 35.8844L16.3058 37.7633L24.9397 44.191L23.8258 45.6873ZM22.9961 37.4606L29.2946 38.3414L28.0256 40.0459L21.7632 39.1167L22.9961 37.4606Z" fill="#3D50DF"/>
<path d="M35.4546 32.203L33.9378 33.4758L29.3989 21.1448L31.0499 19.7594L42.4054 26.3706L40.8885 27.6434L31.7072 22.1394L31.6332 22.2015L35.4546 32.203ZM32.5969 28.2806L37.5174 24.1518L38.5263 25.3542L33.6058 29.483L32.5969 28.2806Z" fill="#3D50DF"/>
<path d="M49.4423 22.1319L47.6728 23.0205L46.0999 9.97518L48.0259 9.00794L57.5506 18.0597L55.7811 18.9484L48.1166 11.4754L48.0303 11.5187L49.4423 22.1319ZM47.5661 17.6562L53.3061 14.7735L54.0106 16.1761L48.2705 19.0589L47.5661 17.6562Z" fill="#3D50DF"/>
<path d="M65.0802 15.6272L62.229 3.59683L64.0441 3.16664L66.525 13.6345L71.9763 12.3425L72.3466 13.905L65.0802 15.6272Z" fill="#3D50DF"/>
<path d="M86.4642 0.471324V12.835H84.5988V0.471324L86.4642 0.471324Z" fill="#3D50DF"/>
<path d="M109.792 7.95564L107.959 7.52127C107.981 7.11295 107.932 6.73724 107.811 6.39413C107.689 6.05103 107.514 5.74275 107.285 5.46929C107.056 5.19584 106.782 4.96541 106.463 4.77799C106.147 4.59151 105.797 4.45279 105.414 4.36183C104.72 4.19755 104.058 4.22471 103.428 4.4433C102.801 4.66283 102.249 5.07179 101.772 5.67019C101.299 6.26951 100.947 7.05477 100.717 8.02597C100.485 9.00501 100.446 9.86844 100.6 10.6163C100.757 11.365 101.069 11.9767 101.536 12.4512C102.002 12.9258 102.578 13.2443 103.264 13.4067C103.644 13.4967 104.016 13.5312 104.381 13.5102C104.75 13.4861 105.098 13.4052 105.425 13.2675C105.751 13.1297 106.045 12.9367 106.306 12.6885C106.573 12.4373 106.789 12.1286 106.954 11.7624L108.785 12.2027C108.547 12.7708 108.228 13.2702 107.829 13.7007C107.434 14.1282 106.974 14.4701 106.45 14.7265C105.931 14.9798 105.368 15.138 104.762 15.2011C104.155 15.2642 103.521 15.2173 102.859 15.0605C101.818 14.8136 100.948 14.3469 100.25 13.6604C99.5537 12.97 99.0799 12.107 98.829 11.0714C98.582 10.0368 98.6103 8.87914 98.9138 7.59857C99.2182 6.31407 99.7144 5.26737 100.402 4.45845C101.091 3.64562 101.902 3.08902 102.833 2.78864C103.766 2.48434 104.751 2.45517 105.789 2.70113C106.427 2.85242 107 3.08552 107.509 3.40045C108.022 3.71239 108.458 4.09702 108.817 4.55436C109.177 5.00777 109.442 5.52141 109.612 6.09528C109.783 6.66522 109.843 7.28534 109.792 7.95564Z" fill="#3D50DF"/>
<path d="M133.129 30.2714C132.876 30.0592 132.734 29.7874 132.702 29.456C132.672 29.1215 132.765 28.8262 132.98 28.5703C133.192 28.3175 133.464 28.178 133.796 28.1519C134.131 28.1226 134.424 28.214 134.677 28.4262C134.93 28.6383 135.071 28.9116 135.1 29.2461C135.132 29.5776 135.042 29.8697 134.83 30.1225C134.687 30.2921 134.514 30.4116 134.308 30.481C134.109 30.5499 133.905 30.5677 133.696 30.5345C133.487 30.5014 133.298 30.4136 133.129 30.2714Z" fill="#3D50DF"/>
<path d="M152.165 54.2213L163.517 49.3243L165.263 53.3708C165.642 54.2504 165.806 55.0456 165.753 55.7565C165.702 56.4711 165.47 57.0881 165.059 57.6074C164.651 58.1252 164.098 58.5348 163.399 58.8361C162.705 59.1357 162.03 59.2536 161.376 59.1896C160.727 59.1277 160.13 58.8678 159.586 58.4098C159.044 57.9556 158.583 57.2887 158.204 56.4092L156.882 53.3438L158.356 52.7077L159.611 55.6179C159.851 56.1722 160.125 56.5888 160.433 56.8676C160.744 57.1502 161.085 57.3074 161.459 57.3393C161.832 57.3712 162.231 57.2954 162.656 57.1121C163.084 56.9272 163.42 56.6839 163.662 56.3821C163.906 56.084 164.036 55.7235 164.051 55.3007C164.071 54.88 163.959 54.387 163.715 53.8216L162.787 51.6708L152.904 55.9341L152.165 54.2213ZM159.704 57.6161L155.792 62.6303L154.95 60.6791L158.886 55.7203L159.704 57.6161Z" fill="#3D50DF"/>
<path d="M158.028 71.0339L157.684 69.0839L170.633 71.3186L171.007 73.441L159.604 79.9695L159.26 78.0195L168.617 72.8203L168.6 72.7252L158.028 71.0339ZM162.854 70.5201L163.969 76.8458L162.423 77.1184L161.308 70.7927L162.854 70.5201Z" fill="#3D50DF"/>
<path d="M159.757 88.1833L159.872 86.2065L171.956 91.3671L171.83 93.5186L159.229 97.2414L159.344 95.2647L169.648 92.3635L169.654 92.2671L159.757 88.1833ZM164.571 88.7962L164.197 95.2087L162.63 95.1174L163.004 88.705L164.571 88.7962Z" fill="#3D50DF"/>
<path d="M157.57 104.98L169.414 108.525L168.879 110.313L158.573 107.227L156.967 112.594L155.428 112.134L157.57 104.98Z" fill="#3D50DF"/>
<path d="M160.004 131.076L149.297 124.894L150.229 123.279L160.937 129.46L160.004 131.076Z" fill="#3D50DF"/>
<path d="M141.858 147.536L143.151 146.166C143.493 146.389 143.843 146.534 144.201 146.6C144.559 146.667 144.914 146.669 145.265 146.608C145.616 146.546 145.953 146.424 146.275 146.241C146.594 146.061 146.889 145.828 147.16 145.541C147.649 145.023 147.956 144.436 148.082 143.78C148.206 143.127 148.127 142.445 147.848 141.733C147.565 141.023 147.061 140.326 146.335 139.641C145.603 138.951 144.875 138.485 144.15 138.244C143.423 138.007 142.737 137.971 142.093 138.138C141.449 138.305 140.885 138.644 140.402 139.156C140.134 139.44 139.918 139.746 139.753 140.072C139.589 140.404 139.486 140.746 139.442 141.098C139.398 141.449 139.418 141.8 139.502 142.151C139.587 142.507 139.746 142.848 139.98 143.174L138.683 144.54C138.31 144.05 138.038 143.524 137.865 142.963C137.692 142.407 137.625 141.838 137.665 141.256C137.706 140.68 137.85 140.113 138.099 139.557C138.347 139 138.705 138.474 139.172 137.979C139.906 137.201 140.745 136.681 141.689 136.42C142.635 136.162 143.619 136.183 144.641 136.484C145.661 136.787 146.649 137.39 147.607 138.293C148.567 139.199 149.225 140.152 149.582 141.153C149.941 142.156 150.018 143.136 149.812 144.093C149.61 145.052 149.142 145.92 148.41 146.696C147.96 147.173 147.472 147.553 146.945 147.836C146.418 148.125 145.867 148.31 145.291 148.392C144.718 148.477 144.141 148.45 143.559 148.31C142.98 148.173 142.413 147.915 141.858 147.536Z" fill="#3D50DF"/>
<path d="M110.864 156.588C111.174 156.475 111.481 156.488 111.784 156.626C112.088 156.768 112.297 156.996 112.411 157.31C112.524 157.62 112.509 157.925 112.366 158.226C112.224 158.53 111.998 158.739 111.688 158.851C111.378 158.964 111.07 158.95 110.766 158.808C110.463 158.67 110.255 158.446 110.142 158.136C110.067 157.928 110.05 157.717 110.093 157.505C110.133 157.297 110.219 157.112 110.352 156.948C110.485 156.784 110.656 156.664 110.864 156.588Z" fill="#3D50DF"/>
</svg>
