<svg width="25" height="25" viewBox="0 0 25 25" fill="none" xmlns="http://www.w3.org/2000/svg">
<path d="M17.366 2.58984H7.36597C4.60454 2.58984 2.36597 4.82842 2.36597 7.58984V17.5898C2.36597 20.3513 4.60454 22.5898 7.36597 22.5898H17.366C20.1274 22.5898 22.366 20.3513 22.366 17.5898V7.58984C22.366 4.82842 20.1274 2.58984 17.366 2.58984Z" stroke="#CEAF7F" stroke-width="2" stroke-linecap="round" stroke-linejoin="round"/>
<path d="M16.366 11.9599C16.4894 12.7921 16.3472 13.6421 15.9597 14.3889C15.5722 15.1357 14.9591 15.7413 14.2076 16.1196C13.4561 16.4978 12.6044 16.6295 11.7738 16.4958C10.9431 16.3622 10.1757 15.97 9.58082 15.3751C8.9859 14.7801 8.59371 14.0128 8.46005 13.1821C8.32638 12.3515 8.45804 11.4998 8.83631 10.7483C9.21457 9.99675 9.82017 9.38364 10.567 8.99614C11.3138 8.60864 12.1637 8.46649 12.996 8.5899C13.8449 8.71579 14.6308 9.11136 15.2377 9.71821C15.8445 10.3251 16.2401 11.111 16.366 11.9599Z" stroke="#CEAF7F" stroke-width="2" stroke-linecap="round" stroke-linejoin="round"/>
<path d="M17.866 7.08984H17.876" stroke="#CEAF7F" stroke-width="2" stroke-linecap="round" stroke-linejoin="round"/>
</svg>
