<svg width="25" height="25" viewBox="0 0 25 25" fill="none" xmlns="http://www.w3.org/2000/svg">
<path d="M16.366 8.58984C17.9573 8.58984 19.4834 9.22198 20.6086 10.3472C21.7338 11.4724 22.366 12.9985 22.366 14.5898V21.5898H18.366V14.5898C18.366 14.0594 18.1553 13.5507 17.7802 13.1756C17.4051 12.8006 16.8964 12.5898 16.366 12.5898C15.8355 12.5898 15.3268 12.8006 14.9518 13.1756C14.5767 13.5507 14.366 14.0594 14.366 14.5898V21.5898H10.366V14.5898C10.366 12.9985 10.9981 11.4724 12.1233 10.3472C13.2485 9.22198 14.7747 8.58984 16.366 8.58984Z" stroke="#CEAF7F" stroke-width="2" stroke-linecap="round" stroke-linejoin="round"/>
<path d="M6.36597 9.58984H2.36597V21.5898H6.36597V9.58984Z" stroke="#CEAF7F" stroke-width="2" stroke-linecap="round" stroke-linejoin="round"/>
<path d="M4.36597 6.58984C5.47054 6.58984 6.36597 5.69441 6.36597 4.58984C6.36597 3.48527 5.47054 2.58984 4.36597 2.58984C3.2614 2.58984 2.36597 3.48527 2.36597 4.58984C2.36597 5.69441 3.2614 6.58984 4.36597 6.58984Z" stroke="#CEAF7F" stroke-width="2" stroke-linecap="round" stroke-linejoin="round"/>
</svg>
