<?xml version="1.0" encoding="UTF-8"?>
<svg version="1.1" xmlns="http://www.w3.org/2000/svg" width="125" height="123">
<path d="M0 0 C2.875 0.75 2.875 0.75 3.875 1.75 C4.00044026 4.91542793 4.0611406 8.06007036 4.08032227 11.22680664 C4.09022186 12.22181686 4.10012146 13.21682709 4.11032104 14.24198914 C4.1420404 17.54802021 4.16673455 20.85406567 4.19140625 24.16015625 C4.21196678 26.44559616 4.232963 28.73103218 4.25437927 31.01646423 C4.30969307 37.04494086 4.35906116 43.07345233 4.40722656 49.10198975 C4.45737381 55.24836342 4.51309516 61.39468621 4.56835938 67.54101562 C4.67605472 79.61063367 4.77747426 91.6802958 4.875 103.75 C5.52984375 103.08991943 6.1846875 102.42983887 6.859375 101.74975586 C9.32490126 99.26703534 11.79277834 96.78669808 14.26220703 94.30786133 C15.32400861 93.24107703 16.38490558 92.17339147 17.44482422 91.10473633 C22.89550611 85.61030487 28.3568267 80.19279459 34.24551392 75.16131592 C36.34682609 73.34134621 38.28087806 71.39337878 40.19921875 69.3828125 C41.27719727 68.27292969 41.27719727 68.27292969 42.37695312 67.140625 C43.8513542 65.61220208 45.31999184 64.07820119 46.78320312 62.5390625 C47.49798828 61.806875 48.21277344 61.0746875 48.94921875 60.3203125 C49.90187622 59.32668701 49.90187622 59.32668701 50.8737793 58.31298828 C53.24861007 56.45820402 54.88343727 55.96822026 57.875 55.75 C60.25 57.375 60.25 57.375 61.875 59.75 C61.8355752 64.29173713 59.61703192 66.45521982 56.55664062 69.46875 C55.98107422 70.0153125 55.40550781 70.561875 54.8125 71.125 C54.26400391 71.66382812 53.71550781 72.20265625 53.15039062 72.7578125 C50.24941678 75.58147186 47.2715062 78.28306589 44.19433594 80.91308594 C39.63201697 84.89496645 35.40570231 89.16269925 31.17578125 93.4921875 C29.53885233 95.15147672 27.90146935 96.81031808 26.26367188 98.46875 C23.71137124 101.05830509 21.16230674 103.65077559 18.62084961 106.25097656 C16.14819187 108.77796018 13.66315114 111.29219553 11.17578125 113.8046875 C10.41735428 114.58689667 9.65892731 115.36910583 8.8775177 116.17501831 C8.16294907 116.89311676 7.44838043 117.61121521 6.7121582 118.35107422 C6.09008987 118.9850412 5.46802155 119.61900818 4.82710266 120.27218628 C2.49525951 122.03747756 0.76829551 122.47362539 -2.125 122.75 C-3.90625 121.7734375 -3.90625 121.7734375 -5.625 120.125 C-6.6459375 119.16207031 -6.6459375 119.16207031 -7.6875 118.1796875 C-8.491875 117.37789063 -9.29625 116.57609375 -10.125 115.75 C-10.62128906 115.25532227 -11.11757813 114.76064453 -11.62890625 114.25097656 C-16.05404334 109.83383671 -16.05404334 109.83383671 -18.20507812 107.63427734 C-20.99041018 104.80148765 -23.83273575 102.10256123 -26.84765625 99.51416016 C-33.29878913 93.89542556 -39.3284693 87.84670367 -45.40039062 81.82470703 C-46.89250546 80.34929498 -48.38998388 78.87928897 -49.89257812 77.41455078 C-52.07595685 75.2857091 -54.24263132 73.14108661 -56.40625 70.9921875 C-57.41854675 70.01389481 -57.41854675 70.01389481 -58.45129395 69.01583862 C-62.99392949 64.45214618 -62.99392949 64.45214618 -63.65429688 60.91455078 C-63.125 58.75 -63.125 58.75 -61.375 56.875 C-59.125 55.75 -59.125 55.75 -57.19018555 56.00572205 C-54.85094167 56.84876864 -53.6275351 57.82349849 -51.83203125 59.53344727 C-51.21062256 60.1196434 -50.58921387 60.70583954 -49.94897461 61.30979919 C-49.28518799 61.95135452 -48.62140137 62.59290985 -47.9375 63.25390625 C-47.2369751 63.92120255 -46.5364502 64.58849884 -45.81469727 65.27601624 C-37.79348399 72.95363668 -29.95192431 80.81282857 -22.125 88.6875 C-20.65648965 90.16104617 -19.18774055 91.63435442 -17.71875 93.10742188 C-14.18475901 96.65222881 -10.65395352 100.20017839 -7.125 103.75 C-7.11913376 102.49132614 -7.11326752 101.23265228 -7.10722351 99.93583679 C-7.05007975 88.09014746 -6.97736207 76.24464319 -6.88928509 64.39914227 C-6.84450428 58.30883283 -6.80526519 52.21859149 -6.77856445 46.12817383 C-6.75260841 40.25364669 -6.71226078 34.37938053 -6.66181374 28.50501442 C-6.64509282 26.26070202 -6.63361121 24.01634443 -6.62738609 21.77197838 C-6.6178018 18.63505893 -6.58981052 15.49881507 -6.55737305 12.36206055 C-6.55880814 11.42842178 -6.56024323 10.49478302 -6.5617218 9.53285217 C-6.54918365 8.67889862 -6.53664551 7.82494507 -6.52372742 6.94511414 C-6.51681397 5.83204911 -6.51681397 5.83204911 -6.50976086 4.69649792 C-5.71819776 0.69199512 -3.92256216 -0.31380497 0 0 Z " fill="#CFB183" transform="translate(63.125,0.25)"/>
</svg>
