<svg width="25" height="16" viewBox="0 0 25 16" fill="none" xmlns="http://www.w3.org/2000/svg">
<path d="M14.8112 5.8717C16.5865 2.47547 19.9827 0.700162 23.3018 1.31766V4.7139C21.2177 3.78765 18.7477 5.33139 17.8215 7.33826C20.909 6.41202 24.4596 8.95919 23.9965 12.2011C23.6105 14.4395 21.6037 15.9832 19.2109 15.9832C14.1937 15.8289 12.8043 9.88544 14.8112 5.8717ZM2.38404 5.8717C4.15935 2.47547 7.55558 0.700162 10.8746 1.31766V4.7139C8.79058 3.78765 6.32059 5.33139 5.31715 7.33826C8.40464 6.41202 12.0324 8.95919 11.4921 12.2011C11.1062 14.4395 9.09933 15.9832 6.70652 15.9832C1.76654 15.8289 0.377173 9.88544 2.38404 5.8717Z" fill="#9F865F"/>
</svg>
